<svg xmlns="http://www.w3.org/2000/svg" viewBox="0 0 750 500"><g id="freepik--background-complete--inject-99"><path d="M566.47,120.06c7.19,0,128.17.8,135.77.56.55,0,.84-.82.3-1.09-4.8-2.38-10.23-1.9-15.21-3.58-2.93-1-4.73-2.9-6.77-5.1a14,14,0,0,0-6.29-4.11,13.31,13.31,0,0,0-6.86-.21c-2.45.58-4.58,2-6.93,2.87-5.81,2.2-11.46.11-15.6-4.19-3.43-3.54-6.79-6.89-11.44-8.8a15.21,15.21,0,0,0-12.12-.17c-4.44,2-7.49,6.06-11.65,8.49-4.95,2.89-10.85,2.21-16.31,3.08s-9.65,5.46-14.44,8.11a10.21,10.21,0,0,1-5.21,1.62c-1.07,0-2.12-.32-3.18-.45-1.65-.21-3.21-.16-4.32,1.22C565.94,118.64,566,120.06,566.47,120.06Z" style="fill:#ebebeb"></path><path d="M52.78,69.41c5.25,0,93.57.59,99.13.41.39,0,.61-.6.21-.8-3.5-1.73-7.47-1.38-11.1-2.61-2.14-.72-3.46-2.12-4.94-3.72a10.2,10.2,0,0,0-4.6-3,9.64,9.64,0,0,0-5-.16c-1.79.43-3.35,1.46-5.06,2.1-4.24,1.6-8.37.08-11.4-3.06-2.49-2.59-5-5-8.35-6.42A11.08,11.08,0,0,0,92.82,52c-3.24,1.46-5.46,4.42-8.5,6.19-3.61,2.11-7.92,1.61-11.91,2.25s-7,4-10.54,5.92a7.49,7.49,0,0,1-3.81,1.18,23.13,23.13,0,0,1-2.32-.33,3.17,3.17,0,0,0-3.15.89C52.39,68.38,52.43,69.41,52.78,69.41Z" style="fill:#ebebeb"></path><path d="M313.38,105.9c5.25,0,93.58.58,99.13.41.4,0,.61-.6.22-.8-3.5-1.73-7.47-1.38-11.11-2.61-2.14-.72-3.45-2.12-4.94-3.72a10.22,10.22,0,0,0-4.59-3,9.68,9.68,0,0,0-5-.16c-1.79.43-3.34,1.45-5.05,2.1-4.25,1.6-8.37.08-11.4-3.06-2.5-2.59-5-5-8.35-6.42a11.12,11.12,0,0,0-8.85-.13c-3.24,1.47-5.46,4.42-8.51,6.2C341.32,96.82,337,96.32,333,97s-7,4-10.54,5.92a7.52,7.52,0,0,1-3.81,1.18,22.72,22.72,0,0,1-2.32-.33,3.17,3.17,0,0,0-3.15.89C313,104.87,313,105.9,313.38,105.9Z" style="fill:#ebebeb"></path><path d="M131.19,206.86c5.25,0,93.58.59,99.13.41a.43.43,0,0,0,.21-.8c-3.5-1.73-7.47-1.38-11.1-2.61-2.14-.72-3.46-2.12-4.94-3.72a10.2,10.2,0,0,0-4.6-3,9.64,9.64,0,0,0-5-.16c-1.79.43-3.35,1.46-5.06,2.1-4.24,1.6-8.37.08-11.4-3.06-2.49-2.59-5-5-8.35-6.42a11.08,11.08,0,0,0-8.85-.12c-3.24,1.46-5.46,4.42-8.5,6.19-3.61,2.11-7.92,1.61-11.91,2.25s-7,4-10.54,5.92a7.39,7.39,0,0,1-3.81,1.18,23.13,23.13,0,0,1-2.32-.33c-1.2-.14-2.34-.11-3.15.89C130.8,205.83,130.84,206.86,131.19,206.86Z" style="fill:#ebebeb"></path><path d="M507.45,64.29c5.25,0,93.58.58,99.13.41.4,0,.61-.6.22-.8-3.5-1.73-7.47-1.38-11.11-2.61-2.14-.72-3.45-2.12-4.94-3.72a10.22,10.22,0,0,0-4.59-3,9.68,9.68,0,0,0-5-.16c-1.79.43-3.34,1.45-5,2.1-4.25,1.6-8.37.08-11.4-3.06-2.5-2.59-5-5-8.35-6.42a11.08,11.08,0,0,0-8.85-.13c-3.24,1.47-5.46,4.42-8.51,6.2-3.6,2.11-7.92,1.61-11.9,2.24s-7.05,4-10.54,5.93a7.52,7.52,0,0,1-3.81,1.18,22.72,22.72,0,0,1-2.32-.33,3.17,3.17,0,0,0-3.15.89C507.07,63.25,507.11,64.29,507.45,64.29Z" style="fill:#ebebeb"></path><path d="M234,178.32c.1.3,139.21,0,137.46,0-.8,0,1.21-1.19.43-1.58-4.53-2.25-9.49-2.31-14.42-2.76a22.46,22.46,0,0,1-8.42-2c-2.62-1.37-4.25-3.75-6.12-6a26.15,26.15,0,0,0-23.75-9c-9.89,1.55-17.69,9.09-27.6,10.47-5.95.84-11.58-1.47-17.4-2.28a21.32,21.32,0,0,0-13.06,2.39c-3.14,1.56-6,2.87-9.59,3.11-2.72.19-5.46-.12-8.18-.15a18.36,18.36,0,0,0-12,4.82C230.85,175.72,229.45,178.32,234,178.32Z" style="fill:#ebebeb"></path><rect x="568.04" y="93.19" width="43" height="225.39" style="fill:#dbdbdb"></rect><rect x="574.71" y="100.52" width="8.36" height="8.61" style="fill:#ebebeb"></rect><rect x="585.41" y="100.52" width="8.36" height="8.61" style="fill:#ebebeb"></rect><rect x="574.71" y="115.13" width="8.36" height="8.61" style="fill:#ebebeb"></rect><rect x="585.41" y="115.13" width="8.36" height="8.61" style="fill:#ebebeb"></rect><rect x="574.71" y="129.74" width="8.36" height="8.61" style="fill:#ebebeb"></rect><rect x="585.41" y="129.74" width="8.36" height="8.61" style="fill:#ebebeb"></rect><rect x="574.71" y="144.35" width="8.36" height="8.61" style="fill:#ebebeb"></rect><rect x="585.41" y="144.35" width="8.36" height="8.61" style="fill:#ebebeb"></rect><rect x="574.71" y="158.96" width="8.36" height="8.61" style="fill:#ebebeb"></rect><rect x="585.41" y="158.96" width="8.36" height="8.61" style="fill:#ebebeb"></rect><rect x="574.71" y="173.57" width="8.36" height="8.61" style="fill:#ebebeb"></rect><rect x="585.41" y="173.57" width="8.36" height="8.61" style="fill:#ebebeb"></rect><rect x="574.71" y="188.18" width="8.36" height="8.61" style="fill:#ebebeb"></rect><rect x="585.41" y="188.18" width="8.36" height="8.61" style="fill:#ebebeb"></rect><rect x="574.71" y="202.79" width="8.36" height="8.61" style="fill:#ebebeb"></rect><rect x="585.41" y="202.79" width="8.36" height="8.61" style="fill:#ebebeb"></rect><rect x="574.71" y="217.4" width="8.36" height="8.61" style="fill:#ebebeb"></rect><rect x="585.41" y="217.4" width="8.36" height="8.61" style="fill:#ebebeb"></rect><rect x="574.71" y="232.01" width="8.36" height="8.61" style="fill:#ebebeb"></rect><rect x="585.41" y="232.01" width="8.36" height="8.61" style="fill:#ebebeb"></rect><rect x="574.71" y="246.63" width="8.36" height="8.61" style="fill:#ebebeb"></rect><rect x="585.41" y="246.63" width="8.36" height="8.61" style="fill:#ebebeb"></rect><rect x="574.71" y="261.24" width="8.36" height="8.61" style="fill:#ebebeb"></rect><rect x="585.41" y="261.24" width="8.36" height="8.61" style="fill:#ebebeb"></rect><rect x="574.71" y="275.85" width="8.36" height="8.61" style="fill:#ebebeb"></rect><rect x="585.41" y="275.85" width="8.36" height="8.61" style="fill:#ebebeb"></rect><rect x="574.71" y="290.46" width="8.36" height="8.61" style="fill:#ebebeb"></rect><rect x="596" y="290.46" width="8.36" height="8.61" transform="translate(1200.37 589.52) rotate(180)" style="fill:#ebebeb"></rect><rect x="596" y="275.85" width="8.36" height="8.61" transform="translate(1200.37 560.3) rotate(180)" style="fill:#ebebeb"></rect><rect x="596" y="261.24" width="8.36" height="8.61" transform="translate(1200.37 531.08) rotate(180)" style="fill:#ebebeb"></rect><rect x="596" y="246.63" width="8.36" height="8.61" transform="translate(1200.37 501.86) rotate(180)" style="fill:#ebebeb"></rect><rect x="596" y="232.01" width="8.36" height="8.61" transform="translate(1200.37 472.64) rotate(180)" style="fill:#ebebeb"></rect><rect x="596" y="217.4" width="8.36" height="8.61" transform="translate(1200.37 443.41) rotate(180)" style="fill:#ebebeb"></rect><rect x="596" y="202.79" width="8.36" height="8.61" transform="translate(1200.37 414.19) rotate(180)" style="fill:#ebebeb"></rect><rect x="596" y="188.18" width="8.36" height="8.61" transform="translate(1200.37 384.97) rotate(180)" style="fill:#ebebeb"></rect><rect x="596" y="173.57" width="8.36" height="8.61" transform="translate(1200.37 355.75) rotate(180)" style="fill:#ebebeb"></rect><rect x="596" y="158.96" width="8.36" height="8.61" transform="translate(1200.37 326.53) rotate(180)" style="fill:#ebebeb"></rect><rect x="596" y="144.35" width="8.36" height="8.61" transform="translate(1200.37 297.3) rotate(180)" style="fill:#ebebeb"></rect><rect x="596" y="129.74" width="8.36" height="8.61" transform="translate(1200.37 268.08) rotate(180)" style="fill:#ebebeb"></rect><rect x="596" y="115.13" width="8.36" height="8.61" transform="translate(1200.37 238.86) rotate(180)" style="fill:#ebebeb"></rect><rect x="596" y="100.52" width="8.36" height="8.61" transform="translate(1200.37 209.64) rotate(180)" style="fill:#ebebeb"></rect><rect x="585.41" y="290.46" width="8.36" height="8.61" style="fill:#ebebeb"></rect><rect x="611.04" y="93.19" width="33.9" height="225.39" style="fill:#a6a6a6"></rect><rect x="634.54" y="290.46" width="6.9" height="8.61" transform="translate(1275.98 589.52) rotate(180)" style="fill:#c7c7c7"></rect><rect x="625.71" y="290.46" width="6.9" height="8.61" transform="translate(1258.32 589.52) rotate(180)" style="fill:#c7c7c7"></rect><rect x="634.54" y="275.85" width="6.9" height="8.61" transform="translate(1275.98 560.3) rotate(180)" style="fill:#c7c7c7"></rect><rect x="625.71" y="275.85" width="6.9" height="8.61" transform="translate(1258.32 560.3) rotate(180)" style="fill:#c7c7c7"></rect><rect x="634.54" y="261.24" width="6.9" height="8.61" transform="translate(1275.98 531.08) rotate(180)" style="fill:#c7c7c7"></rect><rect x="625.71" y="261.24" width="6.9" height="8.61" transform="translate(1258.32 531.08) rotate(180)" style="fill:#c7c7c7"></rect><rect x="634.54" y="246.63" width="6.9" height="8.61" transform="translate(1275.98 501.86) rotate(180)" style="fill:#c7c7c7"></rect><rect x="625.71" y="246.63" width="6.9" height="8.61" transform="translate(1258.32 501.86) rotate(180)" style="fill:#c7c7c7"></rect><rect x="634.54" y="232.01" width="6.9" height="8.61" transform="translate(1275.98 472.64) rotate(180)" style="fill:#c7c7c7"></rect><rect x="625.71" y="232.01" width="6.9" height="8.61" transform="translate(1258.32 472.64) rotate(180)" style="fill:#c7c7c7"></rect><rect x="634.54" y="217.4" width="6.9" height="8.61" transform="translate(1275.98 443.41) rotate(180)" style="fill:#c7c7c7"></rect><rect x="625.71" y="217.4" width="6.9" height="8.61" transform="translate(1258.32 443.41) rotate(180)" style="fill:#c7c7c7"></rect><rect x="634.54" y="202.79" width="6.9" height="8.61" transform="translate(1275.98 414.19) rotate(180)" style="fill:#c7c7c7"></rect><rect x="625.71" y="202.79" width="6.9" height="8.61" transform="translate(1258.32 414.19) rotate(180)" style="fill:#c7c7c7"></rect><rect x="634.54" y="188.18" width="6.9" height="8.61" transform="translate(1275.98 384.97) rotate(180)" style="fill:#c7c7c7"></rect><rect x="625.71" y="188.18" width="6.9" height="8.61" transform="translate(1258.32 384.97) rotate(180)" style="fill:#c7c7c7"></rect><rect x="634.54" y="173.57" width="6.9" height="8.61" transform="translate(1275.98 355.75) rotate(180)" style="fill:#c7c7c7"></rect><rect x="625.71" y="173.57" width="6.9" height="8.61" transform="translate(1258.32 355.75) rotate(180)" style="fill:#c7c7c7"></rect><rect x="634.54" y="158.96" width="6.9" height="8.61" transform="translate(1275.98 326.53) rotate(180)" style="fill:#c7c7c7"></rect><rect x="625.71" y="158.96" width="6.9" height="8.61" transform="translate(1258.32 326.53) rotate(180)" style="fill:#c7c7c7"></rect><rect x="634.54" y="144.35" width="6.9" height="8.61" transform="translate(1275.98 297.3) rotate(180)" style="fill:#c7c7c7"></rect><rect x="625.71" y="144.35" width="6.9" height="8.61" transform="translate(1258.32 297.3) rotate(180)" style="fill:#c7c7c7"></rect><rect x="634.54" y="129.74" width="6.9" height="8.61" transform="translate(1275.98 268.08) rotate(180)" style="fill:#c7c7c7"></rect><rect x="625.71" y="129.74" width="6.9" height="8.61" transform="translate(1258.32 268.08) rotate(180)" style="fill:#c7c7c7"></rect><rect x="634.54" y="115.13" width="6.9" height="8.61" transform="translate(1275.98 238.86) rotate(180)" style="fill:#c7c7c7"></rect><rect x="625.71" y="115.13" width="6.9" height="8.61" transform="translate(1258.32 238.86) rotate(180)" style="fill:#c7c7c7"></rect><rect x="634.54" y="100.52" width="6.9" height="8.61" transform="translate(1275.98 209.64) rotate(180)" style="fill:#c7c7c7"></rect><rect x="616.96" y="100.52" width="6.9" height="8.61" style="fill:#c7c7c7"></rect><rect x="616.96" y="115.13" width="6.9" height="8.61" style="fill:#c7c7c7"></rect><rect x="616.96" y="129.74" width="6.9" height="8.61" style="fill:#c7c7c7"></rect><rect x="616.96" y="144.35" width="6.9" height="8.61" style="fill:#c7c7c7"></rect><rect x="616.96" y="158.96" width="6.9" height="8.61" style="fill:#c7c7c7"></rect><rect x="616.96" y="173.57" width="6.9" height="8.61" style="fill:#c7c7c7"></rect><rect x="616.96" y="188.18" width="6.9" height="8.61" style="fill:#c7c7c7"></rect><rect x="616.96" y="202.79" width="6.9" height="8.61" style="fill:#c7c7c7"></rect><rect x="616.96" y="217.4" width="6.9" height="8.61" style="fill:#c7c7c7"></rect><rect x="616.96" y="232.01" width="6.9" height="8.61" style="fill:#c7c7c7"></rect><rect x="616.96" y="246.63" width="6.9" height="8.61" style="fill:#c7c7c7"></rect><rect x="616.96" y="261.24" width="6.9" height="8.61" style="fill:#c7c7c7"></rect><rect x="616.96" y="275.85" width="6.9" height="8.61" style="fill:#c7c7c7"></rect><rect x="616.96" y="290.46" width="6.9" height="8.61" style="fill:#c7c7c7"></rect><rect x="625.71" y="100.52" width="6.9" height="8.61" transform="translate(1258.32 209.64) rotate(180)" style="fill:#c7c7c7"></rect><rect x="443.57" y="92.12" width="48.26" height="226.46" style="fill:#ebebeb"></rect><rect x="442.41" y="87.62" width="49.42" height="4.51" style="fill:#c7c7c7"></rect><rect x="447.93" y="98.77" width="4.89" height="219.81" style="fill:#fff"></rect><rect x="456.59" y="98.77" width="4.89" height="219.81" style="fill:#fff"></rect><rect x="465.25" y="98.77" width="4.89" height="219.81" style="fill:#fff"></rect><rect x="473.91" y="98.77" width="4.89" height="219.81" style="fill:#fff"></rect><rect x="482.57" y="98.77" width="4.89" height="219.81" style="fill:#fff"></rect><rect x="447.93" y="104.47" width="4.89" height="8.9" style="fill:#ebebeb"></rect><rect x="456.59" y="104.47" width="4.89" height="8.9" style="fill:#ebebeb"></rect><rect x="465.25" y="104.47" width="4.89" height="8.9" style="fill:#ebebeb"></rect><rect x="473.91" y="104.47" width="4.89" height="8.9" style="fill:#ebebeb"></rect><rect x="482.57" y="104.47" width="4.89" height="8.9" style="fill:#ebebeb"></rect><rect x="447.93" y="118.94" width="4.89" height="8.9" style="fill:#ebebeb"></rect><rect x="456.59" y="118.94" width="4.89" height="8.9" style="fill:#ebebeb"></rect><rect x="465.25" y="118.94" width="4.89" height="8.9" style="fill:#ebebeb"></rect><rect x="473.91" y="118.94" width="4.89" height="8.9" style="fill:#ebebeb"></rect><rect x="482.57" y="118.94" width="4.89" height="8.9" style="fill:#ebebeb"></rect><rect x="447.93" y="133.4" width="4.89" height="8.9" style="fill:#ebebeb"></rect><rect x="456.59" y="133.4" width="4.89" height="8.9" style="fill:#ebebeb"></rect><rect x="465.25" y="133.4" width="4.89" height="8.9" style="fill:#ebebeb"></rect><rect x="473.91" y="133.4" width="4.89" height="8.9" style="fill:#ebebeb"></rect><rect x="482.57" y="133.4" width="4.89" height="8.9" style="fill:#ebebeb"></rect><rect x="447.93" y="147.87" width="4.89" height="8.9" style="fill:#ebebeb"></rect><rect x="456.59" y="147.87" width="4.89" height="8.9" style="fill:#ebebeb"></rect><rect x="465.25" y="147.87" width="4.89" height="8.9" style="fill:#ebebeb"></rect><rect x="473.91" y="147.87" width="4.89" height="8.9" style="fill:#ebebeb"></rect><rect x="482.57" y="147.87" width="4.89" height="8.9" style="fill:#ebebeb"></rect><rect x="447.93" y="162.34" width="4.89" height="8.9" style="fill:#ebebeb"></rect><rect x="456.59" y="162.34" width="4.89" height="8.9" style="fill:#ebebeb"></rect><rect x="465.25" y="162.34" width="4.89" height="8.9" style="fill:#ebebeb"></rect><rect x="473.91" y="162.34" width="4.89" height="8.9" style="fill:#ebebeb"></rect><rect x="482.57" y="162.34" width="4.89" height="8.9" style="fill:#ebebeb"></rect><rect x="447.93" y="176.81" width="4.89" height="8.9" style="fill:#ebebeb"></rect><rect x="456.59" y="176.81" width="4.89" height="8.9" style="fill:#ebebeb"></rect><rect x="465.25" y="176.81" width="4.89" height="8.9" style="fill:#ebebeb"></rect><rect x="473.91" y="176.81" width="4.89" height="8.9" style="fill:#ebebeb"></rect><rect x="482.57" y="176.81" width="4.89" height="8.9" style="fill:#ebebeb"></rect><rect x="447.93" y="191.27" width="4.89" height="8.9" style="fill:#ebebeb"></rect><rect x="456.59" y="191.27" width="4.89" height="8.9" style="fill:#ebebeb"></rect><rect x="465.25" y="191.27" width="4.89" height="8.9" style="fill:#ebebeb"></rect><rect x="473.91" y="191.27" width="4.89" height="8.9" style="fill:#ebebeb"></rect><rect x="482.57" y="191.27" width="4.89" height="8.9" style="fill:#ebebeb"></rect><rect x="447.93" y="205.74" width="4.89" height="8.9" style="fill:#ebebeb"></rect><rect x="456.59" y="205.74" width="4.89" height="8.9" style="fill:#ebebeb"></rect><rect x="465.25" y="205.74" width="4.89" height="8.9" style="fill:#ebebeb"></rect><rect x="473.91" y="205.74" width="4.89" height="8.9" style="fill:#ebebeb"></rect><rect x="482.57" y="205.74" width="4.89" height="8.9" style="fill:#ebebeb"></rect><rect x="447.93" y="220.21" width="4.89" height="8.9" style="fill:#ebebeb"></rect><rect x="456.59" y="220.21" width="4.89" height="8.9" style="fill:#ebebeb"></rect><rect x="465.25" y="220.21" width="4.89" height="8.9" style="fill:#ebebeb"></rect><rect x="473.91" y="220.21" width="4.89" height="8.9" style="fill:#ebebeb"></rect><rect x="482.57" y="220.21" width="4.89" height="8.9" style="fill:#ebebeb"></rect><rect x="447.93" y="234.68" width="4.89" height="8.9" style="fill:#ebebeb"></rect><rect x="456.59" y="234.68" width="4.89" height="8.9" style="fill:#ebebeb"></rect><rect x="465.25" y="234.68" width="4.89" height="8.9" style="fill:#ebebeb"></rect><rect x="473.91" y="234.68" width="4.89" height="8.9" style="fill:#ebebeb"></rect><rect x="482.57" y="234.68" width="4.89" height="8.9" style="fill:#ebebeb"></rect><rect x="447.93" y="249.14" width="4.89" height="8.9" style="fill:#ebebeb"></rect><rect x="456.59" y="249.14" width="4.89" height="8.9" style="fill:#ebebeb"></rect><rect x="465.25" y="249.14" width="4.89" height="8.9" style="fill:#ebebeb"></rect><rect x="473.91" y="249.14" width="4.89" height="8.9" style="fill:#ebebeb"></rect><rect x="482.57" y="249.14" width="4.89" height="8.9" style="fill:#ebebeb"></rect><rect x="447.93" y="263.61" width="4.89" height="8.9" style="fill:#ebebeb"></rect><rect x="456.59" y="263.61" width="4.89" height="8.9" style="fill:#ebebeb"></rect><rect x="465.25" y="263.61" width="4.89" height="8.9" style="fill:#ebebeb"></rect><rect x="473.91" y="263.61" width="4.89" height="8.9" style="fill:#ebebeb"></rect><rect x="482.57" y="263.61" width="4.89" height="8.9" style="fill:#ebebeb"></rect><rect x="447.93" y="278.08" width="4.89" height="8.9" style="fill:#ebebeb"></rect><rect x="456.59" y="278.08" width="4.89" height="8.9" style="fill:#ebebeb"></rect><rect x="465.25" y="278.08" width="4.89" height="8.9" style="fill:#ebebeb"></rect><rect x="473.91" y="278.08" width="4.89" height="8.9" style="fill:#ebebeb"></rect><rect x="482.57" y="278.08" width="4.89" height="8.9" style="fill:#ebebeb"></rect><rect x="447.93" y="292.54" width="4.89" height="26.04" style="fill:#ebebeb"></rect><rect x="456.59" y="292.54" width="4.89" height="26.04" style="fill:#ebebeb"></rect><rect x="465.25" y="292.54" width="4.89" height="26.04" style="fill:#ebebeb"></rect><rect x="473.91" y="292.54" width="4.89" height="26.04" style="fill:#ebebeb"></rect><rect x="482.57" y="292.54" width="4.89" height="26.04" style="fill:#ebebeb"></rect><rect x="491.83" y="92.12" width="30.98" height="226.46" style="fill:#dbdbdb"></rect><rect x="491.83" y="87.62" width="32.33" height="4.51" style="fill:#c7c7c7"></rect><rect x="496.19" y="98.77" width="4.89" height="219.81" style="fill:#c7c7c7"></rect><rect x="504.85" y="98.77" width="4.89" height="219.81" style="fill:#c7c7c7"></rect><rect x="513.51" y="98.77" width="4.89" height="219.81" style="fill:#c7c7c7"></rect><rect x="496.19" y="104.47" width="4.89" height="8.9" style="fill:#dbdbdb"></rect><rect x="504.85" y="104.47" width="4.89" height="8.9" style="fill:#dbdbdb"></rect><rect x="513.51" y="104.47" width="4.89" height="8.9" style="fill:#dbdbdb"></rect><rect x="496.19" y="118.94" width="4.89" height="8.9" style="fill:#dbdbdb"></rect><rect x="504.85" y="118.94" width="4.89" height="8.9" style="fill:#dbdbdb"></rect><rect x="513.51" y="118.94" width="4.89" height="8.9" style="fill:#dbdbdb"></rect><rect x="496.19" y="133.4" width="4.89" height="8.9" style="fill:#dbdbdb"></rect><rect x="504.85" y="133.4" width="4.89" height="8.9" style="fill:#dbdbdb"></rect><rect x="513.51" y="133.4" width="4.89" height="8.9" style="fill:#dbdbdb"></rect><rect x="496.19" y="147.87" width="4.89" height="8.9" style="fill:#dbdbdb"></rect><rect x="504.85" y="147.87" width="4.89" height="8.9" style="fill:#dbdbdb"></rect><rect x="513.51" y="147.87" width="4.89" height="8.9" style="fill:#dbdbdb"></rect><rect x="496.19" y="162.34" width="4.89" height="8.9" style="fill:#dbdbdb"></rect><rect x="504.85" y="162.34" width="4.89" height="8.9" style="fill:#dbdbdb"></rect><rect x="513.51" y="162.34" width="4.89" height="8.9" style="fill:#dbdbdb"></rect><rect x="496.19" y="176.81" width="4.89" height="8.9" style="fill:#dbdbdb"></rect><rect x="504.85" y="176.81" width="4.89" height="8.9" style="fill:#dbdbdb"></rect><rect x="513.51" y="176.81" width="4.89" height="8.9" style="fill:#dbdbdb"></rect><rect x="496.19" y="191.27" width="4.89" height="8.9" style="fill:#dbdbdb"></rect><rect x="504.85" y="191.27" width="4.89" height="8.9" style="fill:#dbdbdb"></rect><rect x="513.51" y="191.27" width="4.89" height="8.9" style="fill:#dbdbdb"></rect><rect x="496.19" y="205.74" width="4.89" height="8.9" style="fill:#dbdbdb"></rect><rect x="504.85" y="205.74" width="4.89" height="8.9" style="fill:#dbdbdb"></rect><rect x="513.51" y="205.74" width="4.89" height="8.9" style="fill:#dbdbdb"></rect><rect x="496.19" y="220.21" width="4.89" height="8.9" style="fill:#dbdbdb"></rect><rect x="504.85" y="220.21" width="4.89" height="8.9" style="fill:#dbdbdb"></rect><rect x="513.51" y="220.21" width="4.89" height="8.9" style="fill:#dbdbdb"></rect><rect x="496.19" y="234.68" width="4.89" height="8.9" style="fill:#dbdbdb"></rect><rect x="504.85" y="234.68" width="4.89" height="8.9" style="fill:#dbdbdb"></rect><rect x="513.51" y="234.68" width="4.89" height="8.9" style="fill:#dbdbdb"></rect><rect x="496.19" y="249.14" width="4.89" height="8.9" style="fill:#dbdbdb"></rect><rect x="504.85" y="249.14" width="4.89" height="8.9" style="fill:#dbdbdb"></rect><rect x="513.51" y="249.14" width="4.89" height="8.9" style="fill:#dbdbdb"></rect><rect x="496.19" y="263.61" width="4.89" height="8.9" style="fill:#dbdbdb"></rect><rect x="504.85" y="263.61" width="4.89" height="8.9" style="fill:#dbdbdb"></rect><rect x="513.51" y="263.61" width="4.89" height="8.9" style="fill:#dbdbdb"></rect><rect x="496.19" y="278.08" width="4.89" height="8.9" style="fill:#dbdbdb"></rect><rect x="504.85" y="278.08" width="4.89" height="8.9" style="fill:#dbdbdb"></rect><rect x="513.51" y="278.08" width="4.89" height="8.9" style="fill:#dbdbdb"></rect><rect x="496.19" y="292.54" width="4.89" height="26.04" style="fill:#dbdbdb"></rect><rect x="504.85" y="292.54" width="4.89" height="26.04" style="fill:#dbdbdb"></rect><rect x="513.51" y="292.54" width="4.89" height="26.04" style="fill:#dbdbdb"></rect><rect x="523.06" y="157.25" width="42.54" height="161.33" style="fill:#ebebeb"></rect><rect x="529.11" y="146.55" width="36.49" height="10.7" style="fill:#c7c7c7"></rect><rect x="527.72" y="162.84" width="33.21" height="120.6" style="fill:#dbdbdb"></rect><rect x="527.72" y="174.35" width="33.21" height="2.85" style="fill:#fff"></rect><rect x="527.72" y="186.15" width="33.21" height="2.85" style="fill:#fff"></rect><rect x="527.72" y="197.96" width="33.21" height="2.85" style="fill:#fff"></rect><rect x="527.72" y="209.76" width="33.21" height="2.85" style="fill:#fff"></rect><rect x="527.72" y="221.57" width="33.21" height="2.85" style="fill:#fff"></rect><rect x="527.72" y="233.37" width="33.21" height="2.85" style="fill:#fff"></rect><rect x="527.72" y="245.18" width="33.21" height="2.85" style="fill:#fff"></rect><rect x="527.72" y="256.98" width="33.21" height="2.85" style="fill:#fff"></rect><rect x="527.72" y="268.79" width="33.21" height="2.85" style="fill:#fff"></rect><rect x="527.72" y="280.59" width="33.21" height="2.85" style="fill:#fff"></rect><rect x="565.6" y="157.25" width="26.64" height="161.33" style="fill:#dbdbdb"></rect><rect x="565.6" y="146.55" width="22.65" height="10.7" style="fill:#a6a6a6"></rect><rect x="569.27" y="162.84" width="20.49" height="120.6" style="fill:#c7c7c7"></rect><rect x="569.27" y="174.35" width="20.49" height="2.85" style="fill:#fff"></rect><rect x="569.27" y="186.15" width="20.49" height="2.85" style="fill:#fff"></rect><rect x="569.27" y="197.96" width="20.49" height="2.85" style="fill:#fff"></rect><rect x="569.27" y="209.76" width="20.49" height="2.85" style="fill:#fff"></rect><rect x="569.27" y="221.57" width="20.49" height="2.85" style="fill:#fff"></rect><rect x="569.27" y="233.37" width="20.49" height="2.85" style="fill:#fff"></rect><rect x="569.27" y="245.18" width="20.49" height="2.85" style="fill:#fff"></rect><rect x="569.27" y="256.98" width="20.49" height="2.85" style="fill:#fff"></rect><rect x="569.27" y="268.79" width="20.49" height="2.85" style="fill:#fff"></rect><rect x="569.27" y="280.59" width="20.49" height="2.85" style="fill:#fff"></rect><rect x="647.41" y="159.97" width="22.72" height="26.84" style="fill:#dbdbdb"></rect><rect x="670.13" y="159.97" width="14.41" height="27.82" style="fill:#c7c7c7"></rect><rect x="671.2" y="171.82" width="14.3" height="15.97" style="fill:#dbdbdb"></rect><rect x="685.5" y="171.82" width="8.92" height="15.97" style="fill:#c7c7c7"></rect><rect x="638.7" y="185.07" width="36.74" height="133.51" style="fill:#ebebeb"></rect><rect x="642.9" y="190.81" width="11.55" height="4.72" style="fill:#fff"></rect><rect x="657.68" y="190.81" width="11.55" height="4.72" style="fill:#fff"></rect><rect x="642.9" y="198.82" width="11.55" height="4.72" style="fill:#fff"></rect><rect x="657.68" y="198.82" width="11.55" height="4.72" style="fill:#fff"></rect><rect x="642.9" y="206.83" width="11.55" height="4.72" style="fill:#fff"></rect><rect x="657.68" y="206.83" width="11.55" height="4.72" style="fill:#fff"></rect><rect x="642.9" y="214.85" width="11.55" height="4.72" style="fill:#fff"></rect><rect x="657.68" y="214.85" width="11.55" height="4.72" style="fill:#fff"></rect><rect x="642.9" y="222.86" width="11.55" height="4.72" style="fill:#fff"></rect><rect x="657.68" y="222.86" width="11.55" height="4.72" style="fill:#fff"></rect><rect x="642.9" y="230.88" width="11.55" height="4.72" style="fill:#fff"></rect><rect x="657.68" y="230.88" width="11.55" height="4.72" style="fill:#fff"></rect><rect x="642.9" y="238.89" width="11.55" height="4.72" style="fill:#fff"></rect><rect x="657.68" y="238.89" width="11.55" height="4.72" style="fill:#fff"></rect><rect x="642.9" y="246.9" width="11.55" height="4.72" style="fill:#fff"></rect><rect x="657.68" y="246.9" width="11.55" height="4.72" style="fill:#fff"></rect><rect x="642.9" y="254.92" width="11.55" height="4.72" style="fill:#fff"></rect><rect x="657.68" y="254.92" width="11.55" height="4.72" style="fill:#fff"></rect><rect x="642.9" y="262.93" width="11.55" height="4.72" style="fill:#fff"></rect><rect x="657.68" y="262.93" width="11.55" height="4.72" style="fill:#fff"></rect><rect x="642.9" y="270.95" width="11.55" height="4.72" style="fill:#fff"></rect><rect x="657.68" y="270.95" width="11.55" height="4.72" style="fill:#fff"></rect><rect x="642.9" y="278.96" width="11.55" height="4.72" style="fill:#fff"></rect><rect x="657.68" y="278.96" width="11.55" height="4.72" style="fill:#fff"></rect><rect x="642.9" y="286.97" width="11.55" height="4.72" style="fill:#fff"></rect><rect x="657.68" y="286.97" width="11.55" height="4.72" style="fill:#fff"></rect><rect x="642.9" y="294.99" width="11.55" height="4.72" style="fill:#fff"></rect><rect x="657.68" y="294.99" width="11.55" height="4.72" style="fill:#fff"></rect><rect x="675.44" y="185.07" width="29.77" height="133.51" style="fill:#c7c7c7"></rect><rect x="692.73" y="294.99" width="9.48" height="4.72" transform="translate(1394.95 594.7) rotate(180)" style="fill:#ebebeb"></rect><rect x="680.6" y="294.99" width="9.48" height="4.72" transform="translate(1370.69 594.7) rotate(180)" style="fill:#ebebeb"></rect><rect x="692.73" y="286.97" width="9.48" height="4.72" transform="translate(1394.95 578.67) rotate(180)" style="fill:#ebebeb"></rect><rect x="680.6" y="286.97" width="9.48" height="4.72" transform="translate(1370.69 578.67) rotate(180)" style="fill:#ebebeb"></rect><rect x="692.73" y="278.96" width="9.48" height="4.72" transform="translate(1394.95 562.64) rotate(180)" style="fill:#ebebeb"></rect><rect x="680.6" y="278.96" width="9.48" height="4.72" transform="translate(1370.69 562.64) rotate(180)" style="fill:#ebebeb"></rect><rect x="692.73" y="270.95" width="9.48" height="4.72" transform="translate(1394.95 546.61) rotate(180)" style="fill:#ebebeb"></rect><rect x="680.6" y="270.95" width="9.48" height="4.72" transform="translate(1370.69 546.61) rotate(180)" style="fill:#ebebeb"></rect><rect x="692.73" y="262.93" width="9.48" height="4.72" transform="translate(1394.95 530.58) rotate(180)" style="fill:#ebebeb"></rect><rect x="680.6" y="262.93" width="9.48" height="4.72" transform="translate(1370.69 530.58) rotate(180)" style="fill:#ebebeb"></rect><rect x="692.73" y="254.92" width="9.48" height="4.72" transform="translate(1394.95 514.56) rotate(180)" style="fill:#ebebeb"></rect><rect x="680.6" y="254.92" width="9.48" height="4.72" transform="translate(1370.69 514.56) rotate(180)" style="fill:#ebebeb"></rect><rect x="692.73" y="246.9" width="9.48" height="4.72" transform="translate(1394.95 498.53) rotate(180)" style="fill:#ebebeb"></rect><rect x="680.6" y="246.9" width="9.48" height="4.72" transform="translate(1370.69 498.53) rotate(180)" style="fill:#ebebeb"></rect><rect x="692.73" y="238.89" width="9.48" height="4.72" transform="translate(1394.95 482.5) rotate(180)" style="fill:#ebebeb"></rect><rect x="680.6" y="238.89" width="9.48" height="4.72" transform="translate(1370.69 482.5) rotate(180)" style="fill:#ebebeb"></rect><rect x="692.73" y="230.88" width="9.48" height="4.72" transform="translate(1394.95 466.47) rotate(180)" style="fill:#ebebeb"></rect><rect x="680.6" y="230.88" width="9.48" height="4.72" transform="translate(1370.69 466.47) rotate(180)" style="fill:#ebebeb"></rect><rect x="692.73" y="222.86" width="9.48" height="4.72" transform="translate(1394.95 450.44) rotate(180)" style="fill:#ebebeb"></rect><rect x="680.6" y="222.86" width="9.48" height="4.72" transform="translate(1370.69 450.44) rotate(180)" style="fill:#ebebeb"></rect><rect x="692.73" y="214.85" width="9.48" height="4.72" transform="translate(1394.95 434.42) rotate(180)" style="fill:#ebebeb"></rect><rect x="680.6" y="214.85" width="9.48" height="4.72" transform="translate(1370.69 434.42) rotate(180)" style="fill:#ebebeb"></rect><rect x="692.73" y="206.83" width="9.48" height="4.72" transform="translate(1394.95 418.39) rotate(180)" style="fill:#ebebeb"></rect><rect x="680.6" y="206.83" width="9.48" height="4.72" transform="translate(1370.69 418.39) rotate(180)" style="fill:#ebebeb"></rect><rect x="692.73" y="198.82" width="9.48" height="4.72" transform="translate(1394.95 402.36) rotate(180)" style="fill:#ebebeb"></rect><rect x="680.6" y="198.82" width="9.48" height="4.72" transform="translate(1370.69 402.36) rotate(180)" style="fill:#ebebeb"></rect><rect x="692.73" y="190.81" width="9.48" height="4.72" transform="translate(1394.95 386.33) rotate(180)" style="fill:#ebebeb"></rect><rect x="680.6" y="190.81" width="9.48" height="4.72" transform="translate(1370.69 386.33) rotate(180)" style="fill:#ebebeb"></rect><rect x="378.84" y="231.58" width="43.33" height="87" style="fill:#c7c7c7"></rect><rect x="385.66" y="239.11" width="7.67" height="5.33" style="fill:#dbdbdb"></rect><rect x="385.66" y="250.5" width="7.67" height="5.33" style="fill:#dbdbdb"></rect><rect x="385.66" y="261.88" width="7.67" height="5.33" style="fill:#dbdbdb"></rect><rect x="385.66" y="273.27" width="7.67" height="5.33" style="fill:#dbdbdb"></rect><rect x="385.66" y="284.65" width="7.67" height="5.33" style="fill:#dbdbdb"></rect><rect x="385.66" y="296.04" width="7.67" height="5.33" style="fill:#dbdbdb"></rect><rect x="385.66" y="307.42" width="7.67" height="5.33" style="fill:#dbdbdb"></rect><rect x="396.69" y="239.11" width="7.67" height="5.33" style="fill:#dbdbdb"></rect><rect x="396.69" y="250.5" width="7.67" height="5.33" style="fill:#dbdbdb"></rect><rect x="396.69" y="261.88" width="7.67" height="5.33" style="fill:#dbdbdb"></rect><rect x="396.69" y="273.27" width="7.67" height="5.33" style="fill:#dbdbdb"></rect><rect x="396.69" y="284.65" width="7.67" height="5.33" style="fill:#dbdbdb"></rect><rect x="396.69" y="296.04" width="7.67" height="5.33" style="fill:#dbdbdb"></rect><rect x="396.69" y="307.42" width="7.67" height="5.33" style="fill:#dbdbdb"></rect><rect x="407.69" y="239.11" width="7.67" height="5.33" style="fill:#dbdbdb"></rect><rect x="407.69" y="250.5" width="7.67" height="5.33" style="fill:#dbdbdb"></rect><rect x="407.69" y="261.88" width="7.67" height="5.33" style="fill:#dbdbdb"></rect><rect x="407.69" y="273.27" width="7.67" height="5.33" style="fill:#dbdbdb"></rect><rect x="407.69" y="284.65" width="7.67" height="5.33" style="fill:#dbdbdb"></rect><rect x="407.69" y="296.04" width="7.67" height="5.33" style="fill:#dbdbdb"></rect><rect x="407.69" y="307.42" width="7.67" height="5.33" style="fill:#dbdbdb"></rect><rect x="393.33" y="222.52" width="28.85" height="9.06" style="fill:#dbdbdb"></rect><rect x="403.89" y="216.9" width="18.29" height="5.61" style="fill:#ebebeb"></rect><rect x="422.18" y="231.58" width="30.4" height="87" style="fill:#a6a6a6"></rect><rect x="443.22" y="306.57" width="6.24" height="5.33" transform="translate(892.69 618.47) rotate(180)" style="fill:#c7c7c7"></rect><rect x="443.22" y="295.19" width="6.24" height="5.33" transform="translate(892.69 595.7) rotate(180)" style="fill:#c7c7c7"></rect><rect x="443.22" y="283.8" width="6.24" height="5.33" transform="translate(892.69 572.93) rotate(180)" style="fill:#c7c7c7"></rect><rect x="443.22" y="272.42" width="6.24" height="5.33" transform="translate(892.69 550.16) rotate(180)" style="fill:#c7c7c7"></rect><rect x="443.22" y="261.03" width="6.24" height="5.33" transform="translate(892.69 527.39) rotate(180)" style="fill:#c7c7c7"></rect><rect x="443.22" y="249.65" width="6.24" height="5.33" transform="translate(892.69 504.62) rotate(180)" style="fill:#c7c7c7"></rect><rect x="443.22" y="238.26" width="6.24" height="5.33" transform="translate(892.69 481.85) rotate(180)" style="fill:#c7c7c7"></rect><rect x="434.24" y="306.57" width="6.24" height="5.33" transform="translate(874.73 618.47) rotate(180)" style="fill:#c7c7c7"></rect><rect x="434.24" y="295.19" width="6.24" height="5.33" transform="translate(874.73 595.7) rotate(180)" style="fill:#c7c7c7"></rect><rect x="434.24" y="283.8" width="6.24" height="5.33" transform="translate(874.73 572.93) rotate(180)" style="fill:#c7c7c7"></rect><rect x="434.24" y="272.42" width="6.24" height="5.33" transform="translate(874.73 550.16) rotate(180)" style="fill:#c7c7c7"></rect><rect x="434.24" y="261.03" width="6.24" height="5.33" transform="translate(874.73 527.39) rotate(180)" style="fill:#c7c7c7"></rect><rect x="434.24" y="249.65" width="6.24" height="5.33" transform="translate(874.73 504.62) rotate(180)" style="fill:#c7c7c7"></rect><rect x="434.24" y="238.26" width="6.24" height="5.33" transform="translate(874.73 481.85) rotate(180)" style="fill:#c7c7c7"></rect><rect x="425.29" y="306.57" width="6.24" height="5.33" transform="translate(856.82 618.47) rotate(180)" style="fill:#c7c7c7"></rect><rect x="425.29" y="295.19" width="6.24" height="5.33" transform="translate(856.82 595.7) rotate(180)" style="fill:#c7c7c7"></rect><rect x="425.29" y="283.8" width="6.24" height="5.33" transform="translate(856.82 572.93) rotate(180)" style="fill:#c7c7c7"></rect><rect x="425.29" y="272.42" width="6.24" height="5.33" transform="translate(856.82 550.16) rotate(180)" style="fill:#c7c7c7"></rect><rect x="425.29" y="261.03" width="6.24" height="5.33" transform="translate(856.82 527.39) rotate(180)" style="fill:#c7c7c7"></rect><rect x="425.29" y="249.65" width="6.24" height="5.33" transform="translate(856.82 504.62) rotate(180)" style="fill:#c7c7c7"></rect><rect x="425.29" y="238.26" width="6.24" height="5.33" transform="translate(856.82 481.85) rotate(180)" style="fill:#c7c7c7"></rect><rect x="422.18" y="222.52" width="25.8" height="9.06" style="fill:#c7c7c7"></rect><rect x="422.18" y="216.9" width="13.98" height="5.61" style="fill:#dbdbdb"></rect></g><g id="freepik--bus-stop--inject-99"><path d="M316.26,137.25H49.11C51.78,124.61,63,118.94,63,118.94H302.41S313.58,124.61,316.26,137.25Z" style="fill:#FFC727"></path><path d="M141.35,118.94a63.26,63.26,0,0,0-6.28,18.31h-6.85a72.52,72.52,0,0,1,5.59-18.31Z" style="fill:#37474f"></path><path d="M237.14,137.25H230.3A62.87,62.87,0,0,0,224,118.94h7.54A73,73,0,0,1,237.14,137.25Z" style="fill:#37474f"></path><path d="M316.26,137.25H49.1A26.21,26.21,0,0,1,51.3,131l261.45-2.3A25.84,25.84,0,0,1,316.26,137.25Z" style="opacity:0.1"></path><rect x="45.65" y="137.25" width="8.5" height="181.33" style="fill:#37474f"></rect><rect x="67.83" y="153.76" width="8.5" height="164.82" style="fill:#37474f"></rect><rect x="132.93" y="153.76" width="6.66" height="164.82" style="fill:#37474f"></rect><rect x="225.77" y="153.76" width="6.66" height="164.82" style="fill:#37474f"></rect><rect x="311.22" y="137.25" width="8.5" height="181.33" transform="translate(630.93 455.84) rotate(180)" style="fill:#37474f"></rect><rect x="289.03" y="153.76" width="8.5" height="164.82" transform="translate(586.56 472.34) rotate(180)" style="fill:#37474f"></rect><path d="M320.94,133.58H44.42l-2.45,5,24.64,17.12,2.45.73H296.3l2.45-.73,24.64-17.12Zm-26,17.12H70.46L54.05,139.3H311.31Z" style="fill:#37474f"></path><polygon points="311.31 139.3 294.9 150.7 70.46 150.7 54.05 139.3 311.31 139.3" style="fill:#FFC727;opacity:0.4"></polygon><polygon points="133.87 155.57 128.58 135.38 134.58 134.43 139.87 154.62 133.87 155.57" style="fill:#37474f"></polygon><polygon points="231.49 155.57 225.49 154.62 230.78 134.43 236.78 135.38 231.49 155.57" style="fill:#37474f"></polygon><polygon points="293.32 281.89 311.22 293.6 311.22 184.25 293.32 189.15 293.32 281.89" style="fill:#dbdbdb;opacity:0.7000000000000001"></polygon><polygon points="71.94 281.89 54.05 293.6 54.05 184.25 71.94 189.15 71.94 281.89" style="fill:#dbdbdb;opacity:0.7000000000000001"></polygon><rect x="76.33" y="225.62" width="149.44" height="12.17" style="fill:#FFC727"></rect><rect x="76.33" y="225.62" width="149.44" height="12.17" style="opacity:0.2"></rect><rect x="76.33" y="243.51" width="149.44" height="12.17" style="fill:#FFC727"></rect><rect x="76.33" y="243.51" width="149.44" height="12.17" style="opacity:0.2"></rect><polygon points="244.15 273.49 57.95 273.49 76.33 261.32 225.77 261.32 244.15 273.49" style="fill:#FFC727"></polygon><polygon points="244.15 273.49 57.95 273.49 76.33 261.32 225.77 261.32 244.15 273.49" style="opacity:0.2"></polygon><rect x="57.95" y="273.49" width="186.2" height="3.88" style="fill:#FFC727"></rect></g><g id="freepik--Sign--inject-99"><rect x="371.73" y="44.68" width="6.54" height="273.9" style="fill:#37474f"></rect><polygon points="402.59 48.86 402.59 113.33 347.41 113.33 347.41 48.86 375 48.86 402.59 48.86" style="fill:#FFC727"></polygon><polygon points="398.83 52.45 398.83 109.74 351.17 109.74 351.17 52.45 375 52.45 398.83 52.45" style="fill:none;stroke:#263238;stroke-miterlimit:10"></polygon><polygon points="388.4 86.99 361.6 86.99 361.6 75.36 363.95 60.19 386.05 60.19 388.4 75.36 388.4 86.99" style="fill:#263238"></polygon><rect x="363.42" y="86.99" width="2.9" height="5.38" style="fill:#263238"></rect><rect x="383.67" y="86.99" width="2.9" height="5.38" style="fill:#263238"></rect><path d="M366.28,81.19a1.41,1.41,0,1,1-1.4-1.4A1.4,1.4,0,0,1,366.28,81.19Z" style="fill:#FFC727"></path><path d="M386.53,81.19a1.41,1.41,0,1,1-1.41-1.4A1.41,1.41,0,0,1,386.53,81.19Z" style="fill:#FFC727"></path><polygon points="383.72 65.44 366.28 65.44 364.73 75.36 385.27 75.36 383.72 65.44" style="fill:#FFC727"></polygon><rect x="369.99" y="61.51" width="10.01" height="1.92" style="fill:#FFC727"></rect><path d="M376.28,54.7A1.28,1.28,0,1,1,375,53.42,1.27,1.27,0,0,1,376.28,54.7Z" style="fill:#dbdbdb"></path><path d="M376.28,107.5a1.28,1.28,0,1,1-1.28-1.28A1.28,1.28,0,0,1,376.28,107.5Z" style="fill:#dbdbdb"></path><path d="M362.54,100.09a1.05,1.05,0,0,1-.13.54,1,1,0,0,1-.34.39,1.56,1.56,0,0,1-.5.25,2.43,2.43,0,0,1-.61.08h-2.37v-4.9h2.62a1,1,0,0,1,.47.11,1.39,1.39,0,0,1,.35.29,1.4,1.4,0,0,1,.3.85,1.29,1.29,0,0,1-.18.67,1.08,1.08,0,0,1-.52.47,1.23,1.23,0,0,1,.66.44A1.28,1.28,0,0,1,362.54,100.09Zm-3-2.82V98.5h1.26a.56.56,0,0,0,.41-.16.6.6,0,0,0,.17-.46.64.64,0,0,0-.15-.45.51.51,0,0,0-.38-.16Zm2,2.64a.7.7,0,0,0-.05-.25.72.72,0,0,0-.12-.21.49.49,0,0,0-.18-.14.4.4,0,0,0-.22-.06h-1.46v1.29H361a.47.47,0,0,0,.24-.05.53.53,0,0,0,.2-.13.86.86,0,0,0,.13-.2A.7.7,0,0,0,361.58,99.91Z" style="fill:#263238"></path><path d="M365.35,100.54a1,1,0,0,0,.57-.14,1.13,1.13,0,0,0,.37-.35,1.65,1.65,0,0,0,.2-.51,2.88,2.88,0,0,0,.06-.59v-2.5h.94V99a3.51,3.51,0,0,1-.12.94,2,2,0,0,1-.38.78,1.8,1.8,0,0,1-.66.52,2.24,2.24,0,0,1-1,.19,2.18,2.18,0,0,1-1-.2,1.85,1.85,0,0,1-.66-.54,1.9,1.9,0,0,1-.37-.77,3.52,3.52,0,0,1-.12-.92v-2.5h1V99a2.91,2.91,0,0,0,.06.6,1.5,1.5,0,0,0,.2.5,1.16,1.16,0,0,0,.37.36A1.08,1.08,0,0,0,365.35,100.54Z" style="fill:#263238"></path><path d="M371.37,97.74a.59.59,0,0,0-.18-.13,2.16,2.16,0,0,0-.31-.17,3.14,3.14,0,0,0-.4-.13,1.54,1.54,0,0,0-.43-.06.92.92,0,0,0-.58.15.51.51,0,0,0-.13.66.74.74,0,0,0,.21.17,2,2,0,0,0,.35.14c.14,0,.3.09.49.13l.65.21a1.7,1.7,0,0,1,.5.27,1.31,1.31,0,0,1,.31.4,1.35,1.35,0,0,1,.11.57,1.38,1.38,0,0,1-.15.67,1.17,1.17,0,0,1-.4.45,1.6,1.6,0,0,1-.58.25,2.49,2.49,0,0,1-.68.08,3.69,3.69,0,0,1-1.09-.16,3.49,3.49,0,0,1-1-.47l.42-.82a1.43,1.43,0,0,0,.23.16,3.29,3.29,0,0,0,.38.2,3.12,3.12,0,0,0,.49.17,2,2,0,0,0,.55.07c.53,0,.79-.17.79-.5a.4.4,0,0,0-.09-.27.78.78,0,0,0-.26-.2,3.44,3.44,0,0,0-.4-.15l-.52-.15a3.32,3.32,0,0,1-.61-.21,1.51,1.51,0,0,1-.43-.27.93.93,0,0,1-.26-.36,1.14,1.14,0,0,1-.09-.48,1.53,1.53,0,0,1,.14-.66,1.32,1.32,0,0,1,.38-.49,1.92,1.92,0,0,1,.57-.29,2.28,2.28,0,0,1,.7-.1,2.67,2.67,0,0,1,.95.16,4.14,4.14,0,0,1,.76.38Z" style="fill:#263238"></path><path d="M377.25,97.74a.59.59,0,0,0-.18-.13,2.16,2.16,0,0,0-.31-.17,3.14,3.14,0,0,0-.4-.13,1.54,1.54,0,0,0-.43-.06,1,1,0,0,0-.59.15.5.5,0,0,0-.19.41.49.49,0,0,0,.07.25.74.74,0,0,0,.21.17,2,2,0,0,0,.35.14c.14,0,.3.09.49.13l.65.21a1.7,1.7,0,0,1,.5.27,1.31,1.31,0,0,1,.31.4,1.35,1.35,0,0,1,.11.57,1.38,1.38,0,0,1-.15.67,1.17,1.17,0,0,1-.4.45,1.6,1.6,0,0,1-.58.25,2.53,2.53,0,0,1-.68.08,3.69,3.69,0,0,1-1.09-.16,3.49,3.49,0,0,1-1-.47l.42-.82a1.08,1.08,0,0,0,.23.16,3.29,3.29,0,0,0,.38.2,3.12,3.12,0,0,0,.49.17,2,2,0,0,0,.55.07c.52,0,.79-.17.79-.5a.4.4,0,0,0-.09-.27.78.78,0,0,0-.26-.2,3.44,3.44,0,0,0-.4-.15l-.52-.15a3.32,3.32,0,0,1-.61-.21,1.51,1.51,0,0,1-.43-.27.93.93,0,0,1-.26-.36,1.14,1.14,0,0,1-.09-.48,1.53,1.53,0,0,1,.14-.66,1.32,1.32,0,0,1,.38-.49,1.92,1.92,0,0,1,.57-.29,2.28,2.28,0,0,1,.7-.1,2.67,2.67,0,0,1,1,.16,4.14,4.14,0,0,1,.76.38Z" style="fill:#263238"></path><path d="M382.18,97.29h-1.56v4.06h-.95V97.29h-1.56v-.84h4.07Z" style="fill:#263238"></path><path d="M384.65,101.38a2.19,2.19,0,0,1-1-.21,2.24,2.24,0,0,1-.76-.56,2.36,2.36,0,0,1-.48-.79,2.46,2.46,0,0,1-.17-.92,2.53,2.53,0,0,1,.18-.94,2.71,2.71,0,0,1,.5-.79,2.6,2.6,0,0,1,.76-.55,2.39,2.39,0,0,1,1-.2,2.1,2.1,0,0,1,1,.22,2.33,2.33,0,0,1,.75.57,2.79,2.79,0,0,1,.48.8,2.37,2.37,0,0,1,.17.91,2.48,2.48,0,0,1-.18.93,2.56,2.56,0,0,1-.49.79,2.62,2.62,0,0,1-.76.54A2.2,2.2,0,0,1,384.65,101.38Zm-1.42-2.48a1.87,1.87,0,0,0,.1.62,1.46,1.46,0,0,0,.28.52,1.39,1.39,0,0,0,.44.36,1.4,1.4,0,0,0,1.22,0,1.59,1.59,0,0,0,.45-.37,1.77,1.77,0,0,0,.27-.53,2.08,2.08,0,0,0,.09-.6,1.81,1.81,0,0,0-.1-.61,1.68,1.68,0,0,0-.28-.53,1.33,1.33,0,0,0-.45-.36,1.25,1.25,0,0,0-.59-.13,1.38,1.38,0,0,0-.62.14,1.32,1.32,0,0,0-.44.37,1.92,1.92,0,0,0-.28.53A2,2,0,0,0,383.23,98.9Z" style="fill:#263238"></path><path d="M387.77,101.35v-4.9h2.08a1.32,1.32,0,0,1,.62.15,1.52,1.52,0,0,1,.5.37,2,2,0,0,1,.32.52,1.56,1.56,0,0,1,.12.59,1.73,1.73,0,0,1-.11.6,2,2,0,0,1-.31.53,1.6,1.6,0,0,1-.49.36,1.41,1.41,0,0,1-.62.14h-1.16v1.64Zm1-2.48h1.11a.53.53,0,0,0,.43-.21.86.86,0,0,0,.18-.58,1.14,1.14,0,0,0-.05-.33.76.76,0,0,0-.15-.25.65.65,0,0,0-.21-.16.69.69,0,0,0-.24,0h-1.07Z" style="fill:#263238"></path><rect x="369.39" y="245.6" width="11.22" height="72.98" style="fill:#263238"></rect></g><g id="freepik--Floor--inject-99"><rect x="33.68" y="318.58" width="682.63" height="7.27" style="fill:#c7c7c7"></rect><path d="M81.54,318.58a7.86,7.86,0,0,1,.81,3.64,7.73,7.73,0,0,1-.81,3.63,7.73,7.73,0,0,1-.81-3.63A7.86,7.86,0,0,1,81.54,318.58Z" style="fill:#37474f"></path><path d="M134.9,318.58a8.56,8.56,0,0,1,0,7.27,7.61,7.61,0,0,1-.81-3.63A7.74,7.74,0,0,1,134.9,318.58Z" style="fill:#37474f"></path><path d="M188.25,318.58a7.74,7.74,0,0,1,.81,3.64,7.61,7.61,0,0,1-.81,3.63,8.56,8.56,0,0,1,0-7.27Z" style="fill:#37474f"></path><path d="M241.61,318.58a7.86,7.86,0,0,1,.81,3.64,7.73,7.73,0,0,1-.81,3.63,7.73,7.73,0,0,1-.81-3.63A7.86,7.86,0,0,1,241.61,318.58Z" style="fill:#37474f"></path><path d="M295,318.58a8.56,8.56,0,0,1,0,7.27,7.74,7.74,0,0,1-.82-3.63A7.88,7.88,0,0,1,295,318.58Z" style="fill:#37474f"></path><path d="M348.32,318.58a7.74,7.74,0,0,1,.81,3.64,7.61,7.61,0,0,1-.81,3.63,7.73,7.73,0,0,1-.81-3.63A7.86,7.86,0,0,1,348.32,318.58Z" style="fill:#37474f"></path><path d="M401.68,318.58a7.86,7.86,0,0,1,.81,3.64,7.73,7.73,0,0,1-.81,3.63,7.61,7.61,0,0,1-.81-3.63A7.74,7.74,0,0,1,401.68,318.58Z" style="fill:#37474f"></path><path d="M455,318.58a7.88,7.88,0,0,1,.82,3.64,7.74,7.74,0,0,1-.82,3.63,8.56,8.56,0,0,1,0-7.27Z" style="fill:#37474f"></path><path d="M508.39,318.58a7.86,7.86,0,0,1,.81,3.64,7.73,7.73,0,0,1-.81,3.63,7.73,7.73,0,0,1-.81-3.63A7.86,7.86,0,0,1,508.39,318.58Z" style="fill:#37474f"></path><path d="M561.75,318.58a8.56,8.56,0,0,1,0,7.27,7.61,7.61,0,0,1-.81-3.63A7.74,7.74,0,0,1,561.75,318.58Z" style="fill:#37474f"></path><path d="M615.1,318.58a7.74,7.74,0,0,1,.81,3.64,7.61,7.61,0,0,1-.81,3.63,8.56,8.56,0,0,1,0-7.27Z" style="fill:#37474f"></path><path d="M668.46,318.58a7.86,7.86,0,0,1,.81,3.64,7.73,7.73,0,0,1-.81,3.63,7.73,7.73,0,0,1-.81-3.63A7.86,7.86,0,0,1,668.46,318.58Z" style="fill:#37474f"></path><path d="M33.19,325.85c219-.61,464.63-.62,683.62,0-219,.62-464.63.61-683.62,0Z" style="fill:#263238"></path><path d="M96.77,441.3c178.25-.61,378.21-.61,556.46,0-178.25.62-378.21.61-556.46,0Z" style="fill:#263238"></path></g><g id="freepik--Bus--inject-99"><polygon points="706.25 414.26 142.12 414.26 40.07 404.65 40.07 229.5 699.34 229.5 706.25 341.03 706.25 414.26" style="fill:#FFC727"></polygon><rect x="39.83" y="340.14" width="666.42" height="8.76" style="fill:#fff;opacity:0.5"></rect><rect x="37.83" y="229.5" width="663.75" height="12.63" style="fill:#FFC727"></rect><rect x="37.83" y="229.5" width="663.75" height="12.63" style="fill:#fff;opacity:0.6000000000000001"></rect><polygon points="559.84 199.5 126.47 199.5 106.29 229.5 580.02 229.5 559.84 199.5" style="fill:#FFC727"></polygon><polygon points="559.84 199.5 126.47 199.5 106.29 229.5 580.02 229.5 559.84 199.5" style="fill:#fff;opacity:0.6000000000000001"></polygon><polygon points="580.02 229.5 574.84 221.79 109.05 225.4 106.29 229.5 580.02 229.5" style="opacity:0.1"></polygon><g style="opacity:0.2"><rect x="171.55" y="220.34" width="11.61" height="2.89"></rect><rect x="282.09" y="220.34" width="11.61" height="2.89"></rect><rect x="392.62" y="220.34" width="11.61" height="2.89"></rect><rect x="503.16" y="220.34" width="11.61" height="2.89"></rect></g><g style="opacity:0.2"><rect x="144.13" y="199.5" width="2.37" height="30"></rect><rect x="539.82" y="199.5" width="2.37" height="30"></rect></g><path d="M269.31,401.32h0v12.94H174.9V401.32h0c0-.36,0-.72,0-1.07a47.21,47.21,0,1,1,94.42,0C269.32,400.6,269.32,401,269.31,401.32Z" style="opacity:0.2"></path><path d="M271.69,414.26H267V403.69h-.08l.06-2.45c0-.33,0-.66,0-1a44.84,44.84,0,1,0-89.67,0c0,.33,0,.66,0,1l.08,2.45h-.09v10.57h-4.75l0-15.32a49.58,49.58,0,0,1,99.13,0h0v.3c0,.33,0,.67,0,1v14Z" style="fill:#dbdbdb"></path><path d="M182.72,407.22a39.81,39.81,0,1,0,33.66-45.13A39.81,39.81,0,0,0,182.72,407.22Z" style="fill:#263238"></path><path d="M196.18,405.26a26.2,26.2,0,1,0,22.16-29.7A26.2,26.2,0,0,0,196.18,405.26Z" style="fill:#dbdbdb"></path><path d="M198.2,405a24.16,24.16,0,1,0,20.43-27.39A24.16,24.16,0,0,0,198.2,405Z" style="fill:#a6a6a6"></path><path d="M217.49,396l7.51-1.1c-3.07-3.29,3.9-17.35,3.9-17.35l-4.14-.75c-2,4.9-3.09,6.41-5.26,6.72s-3.66-.81-7-4.94l-3.75,1.9S219.49,392,217.49,396Z" style="fill:#dbdbdb"></path><path d="M225.69,395.31l3.36,6.8c2.19-3.93,17.71-1.64,17.71-1.64l-.57-4.18c-5.26-.36-7.05-1-8-2.92s-.36-3.74,2.55-8.14l-3-3S230.14,396,225.69,395.31Z" style="fill:#dbdbdb"></path><path d="M228.92,402.89l-5.43,5.3c4.41.86,7,16.33,7,16.33l3.79-1.83c-1.28-5.12-1.27-7,.3-8.53s3.44-1.49,8.53-.09l1.92-3.74S229.67,407.32,228.92,402.89Z" style="fill:#dbdbdb"></path><path d="M222.71,408.3,216,404.77c.55,4.47-13.36,11.74-13.36,11.74l2.91,3c4.47-2.8,6.27-3.36,8.2-2.35s2.49,2.82,2.73,8.09l4.15.67S218.72,410.38,222.71,408.3Z" style="fill:#dbdbdb"></path><path d="M215.64,404.07l1.28-7.48c-4.08,1.9-15.29-9.08-15.29-9.08l-2,3.71c4,3.39,5.13,4.92,4.76,7.07s-1.91,3.24-6.85,5.1l.65,4.15S212.43,400.92,215.64,404.07Z" style="fill:#dbdbdb"></path><path d="M215.15,402.33a7,7,0,1,0,5.93-7.95A7,7,0,0,0,215.15,402.33Z" style="fill:#dbdbdb"></path><path d="M593.37,401.32h0v12.94H499V401.32h0c0-.36,0-.72,0-1.07a47.21,47.21,0,1,1,94.41,0C593.38,400.6,593.38,401,593.37,401.32Z" style="opacity:0.2"></path><path d="M595.75,414.26H591V403.69h-.08l.07-2.45c0-.33,0-.66,0-1a44.84,44.84,0,1,0-89.67,0c0,.33,0,.66,0,1l.08,2.45h-.09v10.57h-4.75l0-15.32a49.58,49.58,0,0,1,99.13,0h0v.3c0,.33,0,.67,0,1v14Z" style="fill:#dbdbdb"></path><path d="M506.78,407.22a39.81,39.81,0,1,0,33.66-45.13A39.81,39.81,0,0,0,506.78,407.22Z" style="fill:#263238"></path><path d="M520.24,405.26a26.21,26.21,0,1,0,22.16-29.7A26.2,26.2,0,0,0,520.24,405.26Z" style="fill:#dbdbdb"></path><path d="M522.26,405a24.16,24.16,0,1,0,20.43-27.39A24.17,24.17,0,0,0,522.26,405Z" style="fill:#a6a6a6"></path><path d="M541.55,396l7.51-1.1c-3.07-3.29,3.9-17.35,3.9-17.35l-4.14-.75c-2,4.9-3.09,6.41-5.26,6.72s-3.66-.81-7-4.94l-3.75,1.9S543.55,392,541.55,396Z" style="fill:#dbdbdb"></path><path d="M549.75,395.31l3.36,6.8c2.19-3.93,17.71-1.64,17.71-1.64l-.57-4.18c-5.26-.36-7-1-8-2.92s-.36-3.74,2.55-8.14l-3-3S554.2,396,549.75,395.31Z" style="fill:#dbdbdb"></path><path d="M553,402.89l-5.43,5.3c4.41.86,7,16.33,7,16.33l3.79-1.83c-1.28-5.12-1.27-7,.3-8.53s3.44-1.49,8.53-.09l1.92-3.74S553.73,407.32,553,402.89Z" style="fill:#dbdbdb"></path><path d="M546.77,408.3l-6.72-3.53c.55,4.47-13.36,11.74-13.36,11.74l2.91,3c4.47-2.8,6.27-3.36,8.21-2.35s2.48,2.82,2.72,8.09l4.15.67S542.78,410.38,546.77,408.3Z" style="fill:#dbdbdb"></path><path d="M539.7,404.07l1.28-7.48c-4.07,1.9-15.29-9.08-15.29-9.08l-2,3.71c4,3.39,5.13,4.92,4.76,7.07s-1.9,3.24-6.85,5.1l.65,4.15S536.49,400.92,539.7,404.07Z" style="fill:#dbdbdb"></path><path d="M539.21,402.33a7,7,0,1,0,5.93-7.95A7,7,0,0,0,539.21,402.33Z" style="fill:#dbdbdb"></path><rect x="46.97" y="254.77" width="629.47" height="3.55" style="opacity:0.2"></rect><g style="opacity:0.2"><polygon points="685.33 414.26 682.96 414.26 682.96 267.21 603.61 267.21 603.61 414.26 601.24 414.26 601.24 264.83 685.33 264.83 685.33 414.26"></polygon><rect x="642.1" y="266.02" width="2.37" height="148.24"></rect></g><rect x="609.73" y="274.11" width="26.25" height="104.02" style="fill:#37474f"></rect><polygon points="622.44 378.13 635.98 364.6 635.98 378.13 622.44 378.13" style="fill:#455a64"></polygon><polygon points="635.98 274.11 635.98 274.68 609.73 300.93 609.73 288.47 624.07 274.11 635.98 274.11" style="fill:#455a64"></polygon><polygon points="609.73 362.85 635.98 336.61 635.98 339.18 609.73 365.43 609.73 362.85" style="fill:#455a64"></polygon><rect x="609.73" y="274.11" width="26.25" height="4.47" style="fill:#263238"></rect><g style="opacity:0.2"><polygon points="408.01 414.26 405.63 414.26 405.63 267.21 326.29 267.21 326.29 414.26 323.91 414.26 323.91 264.83 408.01 264.83 408.01 414.26"></polygon><rect x="364.77" y="266.02" width="2.37" height="148.24"></rect></g><rect x="650.59" y="274.11" width="26.25" height="104.02" style="fill:#37474f"></rect><rect x="650.59" y="274.11" width="26.25" height="4.47" style="fill:#263238"></rect><polygon points="650.59 349.99 676.84 323.74 676.84 362.83 661.53 378.13 650.59 378.13 650.59 349.99" style="fill:#455a64"></polygon><polygon points="650.59 321.99 676.84 295.74 676.84 298.32 650.59 324.57 650.59 321.99" style="fill:#455a64"></polygon><rect x="505.81" y="266.02" width="85.47" height="74.12" style="fill:#37474f"></rect><polygon points="583.36 266.02 509.23 340.14 505.81 340.14 505.81 304.48 544.28 266.02 583.36 266.02" style="fill:#455a64"></polygon><polygon points="558.05 340.14 591.28 306.92 591.28 319.38 570.51 340.14 558.05 340.14" style="fill:#455a64"></polygon><polygon points="526.14 266.02 505.81 286.34 505.81 283.78 523.57 266.02 526.14 266.02" style="fill:#455a64"></polygon><rect x="505.81" y="266.02" width="85.47" height="20.96" style="fill:#263238"></rect><rect x="505.81" y="266.02" width="85.47" height="4.47" style="opacity:0.2"></rect><rect x="505.81" y="295.38" width="85.47" height="3.55" style="fill:#FFC727"></rect><path d="M510.6,274.39a.14.14,0,0,1,.13-.15h.61a.14.14,0,0,1,.15.15.15.15,0,0,1-.15.14h-.45V275a.16.16,0,0,1-.14.16.15.15,0,0,1-.15-.16Zm0,1.19a.14.14,0,0,1,.15-.15.15.15,0,0,1,.14.15v.6a.17.17,0,0,1-.14.16.16.16,0,0,1-.15-.16Zm0,1.2a.14.14,0,0,1,.15-.15.15.15,0,0,1,.14.15v.59a.15.15,0,0,1-.14.15.14.14,0,0,1-.15-.15Zm0,1.19a.14.14,0,0,1,.15-.15.15.15,0,0,1,.14.15v.6a.15.15,0,0,1-.14.14.14.14,0,0,1-.15-.14Zm0,1.19a.13.13,0,0,1,.15-.14.14.14,0,0,1,.14.14v.6a.15.15,0,0,1-.14.15.14.14,0,0,1-.15-.15Zm0,1.2a.14.14,0,0,1,.15-.15.15.15,0,0,1,.14.15v.6a.15.15,0,0,1-.14.14.14.14,0,0,1-.15-.14Zm.15,2.12a.15.15,0,0,1-.15-.15.15.15,0,0,0,0-.18v-.6a.13.13,0,0,1,.15-.14.14.14,0,0,1,.14.14v.6a0,0,0,0,1,0,0c.07,0,.15.07.15.15a.15.15,0,0,1-.15.15Zm.73,0a.14.14,0,0,1-.16-.15.15.15,0,0,1,.16-.15h.6a.15.15,0,0,1,.14.15.15.15,0,0,1-.14.15Zm.46-8a.17.17,0,0,1-.16-.14.16.16,0,0,1,.16-.15h.61a.15.15,0,0,1,.14.16.14.14,0,0,1-.15.13Zm.72,7.63a2.7,2.7,0,0,0,.56-.08.14.14,0,0,1,.18.12.14.14,0,0,1-.1.17c-.21.05-.41.07-.61.1h0a.14.14,0,0,1-.14-.14C512.5,282.25,512.56,282.18,512.66,282.16Zm1-7.38a2.58,2.58,0,0,0-.56-.16.19.19,0,0,1-.12-.19.15.15,0,0,1,.18-.1,2.56,2.56,0,0,1,.6.17.14.14,0,0,1,.08.19.13.13,0,0,1-.14.09Zm.1,7.13.52-.25a.15.15,0,0,1,.21,0,.16.16,0,0,1-.06.21,3.51,3.51,0,0,1-.55.27s0,0-.06,0a.16.16,0,0,1-.14-.1A.15.15,0,0,1,513.76,281.91Zm.41-6.89a.17.17,0,0,1-.06-.22.19.19,0,0,1,.22-.05,5.5,5.5,0,0,1,.5.34.15.15,0,0,1-.08.27.12.12,0,0,1-.09,0A3.66,3.66,0,0,0,514.17,275Zm.58,6.31a3.87,3.87,0,0,0,.41-.4.15.15,0,1,1,.23.2,3,3,0,0,1-.45.42.13.13,0,0,1-.1,0,.17.17,0,0,1-.11,0A.14.14,0,0,1,514.75,281.33Zm.34-5.63a.13.13,0,0,1,0-.2.13.13,0,0,1,.2,0,2.55,2.55,0,0,1,.41.46.16.16,0,0,1,0,.21.07.07,0,0,1-.07,0,.18.18,0,0,1-.15-.06C515.34,276,515.22,275.85,515.09,275.7Zm.42,4.78c.11-.17.2-.33.3-.51a.14.14,0,0,1,.19-.07.16.16,0,0,1,.07.2,3.55,3.55,0,0,1-.3.54.15.15,0,0,1-.13.06h-.08A.17.17,0,0,1,515.51,280.48Zm.23-3.84a.14.14,0,0,1,.08-.19.13.13,0,0,1,.19.06,3.64,3.64,0,0,1,.25.57.16.16,0,0,1-.11.19h0a.14.14,0,0,1-.13-.09A3.81,3.81,0,0,0,515.74,276.64Zm.36,3a.19.19,0,0,1-.1-.2,3.37,3.37,0,0,0,.12-.55.14.14,0,0,1,.16-.13.15.15,0,0,1,.14.16,4.61,4.61,0,0,1-.14.62.14.14,0,0,1-.13.1Zm0-1.89a.15.15,0,0,1,.12-.18.14.14,0,0,1,.18.13,4,4,0,0,1,0,.61.13.13,0,0,1-.12.15h0c-.07,0-.13-.05-.14-.15A3.24,3.24,0,0,0,516.1,277.74Z" style="fill:#FFC727"></path><path d="M518.51,278.3a2.85,2.85,0,0,1,0-.42.12.12,0,0,1,.14-.13c.1,0,.16.07.14.15s0,.27,0,.4v.18a.13.13,0,0,1-.13.16h0a.17.17,0,0,1-.16-.15Zm.08.81a.15.15,0,0,1,.11-.17.16.16,0,0,1,.19.11,3,3,0,0,0,.16.59c0,.07,0,.14-.11.18h-.05a.17.17,0,0,1-.14-.1A4,4,0,0,1,518.59,279.11Zm0-1.84a4.06,4.06,0,0,1,.19-.62.16.16,0,0,1,.2-.08.19.19,0,0,1,.1.2,4.5,4.5,0,0,0-.19.55.16.16,0,0,1-.15.12h0A.14.14,0,0,1,518.64,277.27Zm.37,3a.13.13,0,0,1,.06-.2.14.14,0,0,1,.2.06,5.24,5.24,0,0,0,.3.51.15.15,0,0,1,0,.21l-.07,0a.15.15,0,0,1-.14-.07A2.31,2.31,0,0,1,519,280.3Zm.12-4.2a5.8,5.8,0,0,1,.34-.52.15.15,0,0,1,.21,0,.14.14,0,0,1,0,.21c-.11.16-.23.32-.33.48a.14.14,0,0,1-.12.07h-.08A.14.14,0,0,1,519.13,276.1Zm.59,5.21a.14.14,0,0,1,0-.21.16.16,0,0,1,.22,0,3.16,3.16,0,0,0,.44.38.14.14,0,0,1,0,.21.14.14,0,0,1-.13.06h-.08A6.42,6.42,0,0,1,519.72,281.31Zm.2-6.17a1.69,1.69,0,0,1,.49-.39.12.12,0,0,1,.19,0,.13.13,0,0,1,0,.19l-.46.38-.1,0a.17.17,0,0,1-.11-.05C519.82,275.28,519.86,275.19,519.92,275.14Zm.82,6.94a.19.19,0,0,1-.08-.22.16.16,0,0,1,.22-.06,2.57,2.57,0,0,0,.52.21.19.19,0,0,1,.11.2.19.19,0,0,1-.16.1h0Zm.21-7.63a4.27,4.27,0,0,1,.6-.21.16.16,0,0,1,.19.12.14.14,0,0,1-.12.17c-.19.05-.36.11-.55.18,0,0,0,0-.06,0a.13.13,0,0,1-.13-.09A.15.15,0,0,1,521,274.45Zm.85,7.84a.15.15,0,0,1,.16-.14,2.85,2.85,0,0,0,.51,0h.09a.15.15,0,0,1,.15.15.14.14,0,0,1-.15.15h-.09a2.28,2.28,0,0,1-.53,0A.14.14,0,0,1,521.8,282.29Zm.67-7.86a1.23,1.23,0,0,0-.28,0,.18.18,0,0,1-.17-.15.17.17,0,0,1,.16-.17h.62a.15.15,0,0,1,.13.18.14.14,0,0,1-.14.14h0A1.28,1.28,0,0,0,522.47,274.43Zm.66,7.7a4.26,4.26,0,0,0,.54-.17.15.15,0,0,1,.2.07c0,.11,0,.18-.07.21s-.41.13-.61.18h0a.14.14,0,0,1-.14-.12A.13.13,0,0,1,523.13,282.13Zm.22-7.6a.12.12,0,0,1-.11-.17.17.17,0,0,1,.18-.11,3,3,0,0,1,.58.21.14.14,0,0,1,.08.19.15.15,0,0,1-.14.1s-.05,0-.06,0A3.65,3.65,0,0,0,523.35,274.53Zm.85,7.17a1.59,1.59,0,0,0,.47-.33.18.18,0,0,1,.22,0,.16.16,0,0,1,0,.21,3.11,3.11,0,0,1-.52.34.12.12,0,0,1-.07,0s-.12,0-.14-.07A.16.16,0,0,1,524.2,281.7Zm.2-6.68a.16.16,0,1,1,.17-.26c.16.12.32.26.48.4a.13.13,0,0,1,0,.21.12.12,0,0,1-.12.05.09.09,0,0,1-.09,0C524.71,275.25,524.55,275.14,524.4,275Zm.71,6a4.27,4.27,0,0,0,.35-.46.15.15,0,0,1,.2,0,.16.16,0,0,1,0,.21,5.86,5.86,0,0,1-.37.5.21.21,0,0,1-.11.05.24.24,0,0,1-.1,0A.16.16,0,0,1,525.11,281Zm.14-5.17a.15.15,0,0,1,0-.21c.07,0,.17,0,.2,0a2.55,2.55,0,0,1,.37.52.17.17,0,0,1-.06.2l-.08,0a.16.16,0,0,1-.13-.08A5.14,5.14,0,0,0,525.25,275.8Zm.48,4.2a5.76,5.76,0,0,0,.21-.55.15.15,0,0,1,.19-.1.2.2,0,0,1,.11.2,4,4,0,0,1-.23.57.18.18,0,0,1-.15.1h-.06A.18.18,0,0,1,525.73,280Zm.08-3.17c0-.11,0-.18.1-.21a.17.17,0,0,1,.21.08q.11.3.18.6a.18.18,0,0,1-.12.19h0a.17.17,0,0,1-.15-.13A2.37,2.37,0,0,0,525.81,276.83Zm.26,2.06c0-.19,0-.4,0-.59a2,2,0,0,0,0-.35.15.15,0,0,1,.13-.16.14.14,0,0,1,.17.13,2.42,2.42,0,0,1,0,.38,4,4,0,0,1,0,.62.14.14,0,0,1-.14.13h0A.15.15,0,0,1,526.07,278.89Z" style="fill:#FFC727"></path><path d="M528,274.46a.13.13,0,0,1,.08-.18.15.15,0,0,1,.2.07l.23.55a.15.15,0,0,1-.09.19h-.06a.15.15,0,0,1-.12-.08Zm.46,1.11a.17.17,0,0,1,.08-.21.15.15,0,0,1,.2.09l.22.54a.13.13,0,0,1-.08.2h-.06c-.06,0-.09,0-.13-.09Zm.46,1.08a.14.14,0,0,1,.09-.19.14.14,0,0,1,.19.07l.22.56a.13.13,0,0,1-.07.19h-.06a.16.16,0,0,1-.14-.08Zm.48,1.11a.14.14,0,0,1,.07-.2c.07,0,.17,0,.19.08l.22.54a.14.14,0,0,1-.07.2s0,0-.06,0a.14.14,0,0,1-.13-.09Zm.46,1.09a.12.12,0,0,1,.07-.18.14.14,0,0,1,.2.07l.24.55a.18.18,0,0,1-.1.2h-.06a.18.18,0,0,1-.13-.09Zm.46,1.1a.15.15,0,0,1,.07-.2.18.18,0,0,1,.2.09l.23.56c0,.07,0,.14-.09.18h-.06a.14.14,0,0,1-.13-.08Zm.46,1.09a.15.15,0,1,1,.27-.11l.23.55a.15.15,0,0,1-.08.2h-.06a.17.17,0,0,1-.14-.09Zm.64,1.44a.14.14,0,0,1-.09-.11l-.09-.22a.14.14,0,0,1,.08-.19.16.16,0,0,1,.15,0v0a.15.15,0,1,1,.27.12l-.12.28a.23.23,0,0,1-.09.12h-.12Zm.29-1.07.23-.56a.15.15,0,0,1,.19-.07.14.14,0,0,1,.08.19l-.22.56a.2.2,0,0,1-.15.09.06.06,0,0,1-.05,0A.14.14,0,0,1,531.7,281.41Zm.55-.9a.15.15,0,0,1-.09-.21l.23-.53a.15.15,0,0,1,.2-.09.14.14,0,0,1,.07.19l-.22.55a.19.19,0,0,1-.13.09Zm.37-1.29.23-.55a.14.14,0,0,1,.2-.07.13.13,0,0,1,.07.18l-.22.56a.2.2,0,0,1-.13.09s0,0-.06,0A.15.15,0,0,1,532.62,279.22Zm.45-1.11.25-.55a.14.14,0,0,1,.19-.07.13.13,0,0,1,.07.19l-.22.55a.14.14,0,0,1-.13.09h-.06A.19.19,0,0,1,533.07,278.11Zm.86-1.25-.1.28a.17.17,0,0,1-.14.08h-.06a.15.15,0,0,1-.08-.2l.23-.55a.15.15,0,0,1,.18-.08.15.15,0,0,1,.14.08l.23.55a.16.16,0,0,1-.09.2h-.06a.14.14,0,0,1-.13-.08Zm.36.82a.13.13,0,0,1,.07-.19.15.15,0,0,1,.2.07l.23.55a.15.15,0,0,1-.09.2h-.06a.13.13,0,0,1-.13-.09Zm.46,1.1a.13.13,0,0,1,.08-.18c.07-.05.15,0,.19.07l.23.55a.14.14,0,0,1-.08.19l-.06,0c-.05,0-.1-.05-.14-.09Zm.45,1.09a.15.15,0,0,1,.09-.19.14.14,0,0,1,.19.09l.23.53a.16.16,0,0,1-.08.21h-.06a.16.16,0,0,1-.14-.09Zm.48,1.1a.14.14,0,0,1,.07-.19.13.13,0,0,1,.18.07l.25.56a.16.16,0,0,1-.09.19s0,0-.05,0a.16.16,0,0,1-.14-.09Zm.67,1.51a.14.14,0,0,1-.1-.11l-.11-.29a.15.15,0,0,1,.07-.2.16.16,0,0,1,.2.08v0a.18.18,0,0,1,.16,0,.14.14,0,0,1,.07.19l-.09.21a.23.23,0,0,1-.09.12Zm.24-1,.24-.55a.15.15,0,0,1,.2-.08.14.14,0,0,1,.07.19l-.22.56a.16.16,0,0,1-.13.09h-.06A.16.16,0,0,1,536.59,281.48Zm.56-.9a.17.17,0,0,1-.1-.18l.25-.56a.16.16,0,0,1,.19-.09.14.14,0,0,1,.07.2l-.22.55a.14.14,0,0,1-.13.08Zm.37-1.29.24-.55a.13.13,0,0,1,.19-.07.12.12,0,0,1,.08.18l-.22.56a.24.24,0,0,1-.15.09h0A.17.17,0,0,1,537.52,279.29Zm.47-1.11.23-.54a.16.16,0,0,1,.2-.08.14.14,0,0,1,.07.2l-.22.55c0,.06-.08.09-.13.09s0,0-.07,0A.14.14,0,0,1,538,278.18Zm.46-1.09.23-.56a.16.16,0,0,1,.2-.07.15.15,0,0,1,.08.19l-.24.56a.12.12,0,0,1-.13.08h-.05A.14.14,0,0,1,538.45,277.09Zm.54-.9a.14.14,0,0,1-.07-.2l.23-.54a.14.14,0,0,1,.19-.09.2.2,0,0,1,.09.21l-.25.53a.13.13,0,0,1-.13.09Zm.39-1.29.23-.55a.13.13,0,0,1,.19-.07.14.14,0,0,1,.09.18l-.24.56a.18.18,0,0,1-.14.08h-.06A.15.15,0,0,1,539.38,274.9Z" style="fill:#FFC727"></path><path d="M541.75,274.88V275a.15.15,0,0,1-.16.15.16.16,0,0,1-.15-.15v-.64a.17.17,0,0,1,.06-.11.15.15,0,0,1,.21,0l.36.49a.17.17,0,0,1,0,.22h-.09c-.05,0-.1,0-.12-.06Zm-.31.76a.15.15,0,0,1,.15-.15.14.14,0,0,1,.16.15v.6a.15.15,0,0,1-.16.14.16.16,0,0,1-.15-.14Zm0,1.19a.15.15,0,0,1,.15-.14.14.14,0,0,1,.16.14v.6a.16.16,0,0,1-.16.15.17.17,0,0,1-.15-.15Zm0,1.2a.15.15,0,0,1,.15-.15.14.14,0,0,1,.16.15v.59a.16.16,0,0,1-.16.15.17.17,0,0,1-.15-.15Zm0,1.19a.15.15,0,0,1,.15-.15.14.14,0,0,1,.16.15v.59a.15.15,0,0,1-.16.15.16.16,0,0,1-.15-.15Zm0,1.19a.16.16,0,0,1,.15-.16.15.15,0,0,1,.16.16v.6a.15.15,0,0,1-.16.14.16.16,0,0,1-.15-.14Zm0,1.19a.15.15,0,0,1,.15-.15.14.14,0,0,1,.16.15v.6a.16.16,0,0,1-.16.15.17.17,0,0,1-.15-.15Zm.73-6.14a.16.16,0,0,1,0-.21.17.17,0,0,1,.21,0l.34.48a.13.13,0,0,1,0,.2.11.11,0,0,1-.08,0,.16.16,0,0,1-.13-.06Zm.7,1a.14.14,0,0,1,0-.21.14.14,0,0,1,.21,0l.34.47c0,.09,0,.17,0,.21a.09.09,0,0,1-.09,0,.13.13,0,0,1-.12-.06Zm.69,1a.13.13,0,0,1,.05-.2.13.13,0,0,1,.19,0l.36.48a.16.16,0,0,1,0,.2.09.09,0,0,1-.09,0,.19.19,0,0,1-.13-.06Zm.71,1a.13.13,0,0,1,0-.19.14.14,0,0,1,.21,0l.35.49a.14.14,0,0,1,0,.21l-.08,0c-.05,0-.1,0-.12-.06Zm.69,1a.15.15,0,0,1,0-.21.14.14,0,0,1,.2.05l.34.47a.13.13,0,0,1,0,.21.24.24,0,0,1-.09,0,.16.16,0,0,1-.12-.06Zm.7,1a.14.14,0,0,1,0-.21.15.15,0,0,1,.21,0l.34.49a.14.14,0,0,1,0,.2l-.08,0a.16.16,0,0,1-.12-.06Zm.69,1a.14.14,0,0,1,0-.21.15.15,0,0,1,.19,0l.35.48a.17.17,0,0,1,0,.21.19.19,0,0,1-.1,0,.2.2,0,0,1-.12-.06Zm.69,1a.16.16,0,0,1,0-.2.13.13,0,0,1,.12,0v-.4a.15.15,0,0,1,.15-.15.14.14,0,0,1,.14.15v.6a.19.19,0,0,1,0,.1.2.2,0,0,1-.07.17h-.08s-.1,0-.12-.06Zm.16-7.77a.15.15,0,0,1,.15-.15.14.14,0,0,1,.14.15V275a.15.15,0,0,1-.14.15.15.15,0,0,1-.15-.15Zm0,1.19a.15.15,0,0,1,.15-.15.14.14,0,0,1,.14.15v.6a.14.14,0,0,1-.14.14.15.15,0,0,1-.15-.14Zm0,1.19a.15.15,0,0,1,.15-.14.14.14,0,0,1,.14.14v.6a.15.15,0,0,1-.14.15.16.16,0,0,1-.15-.15Zm0,1.2a.15.15,0,0,1,.15-.15.14.14,0,0,1,.14.15v.59a.15.15,0,0,1-.14.15.16.16,0,0,1-.15-.15Zm0,1.19a.14.14,0,0,1,.15-.15.13.13,0,0,1,.14.15v.59a.15.15,0,0,1-.14.15.15.15,0,0,1-.15-.15Zm0,1.19a.15.15,0,0,1,.15-.16.14.14,0,0,1,.14.16v.6a.14.14,0,0,1-.14.14.15.15,0,0,1-.15-.14Z" style="fill:#FFC727"></path><path d="M549.92,274.55a.16.16,0,0,1-.16-.16.14.14,0,0,1,.16-.15h.61a.15.15,0,0,1,.15.15.18.18,0,0,1-.15.16Zm1.22,0a.16.16,0,0,1-.15-.16.14.14,0,0,1,.15-.15h.61a.15.15,0,0,1,.14.15.17.17,0,0,1-.14.16Zm1.19,0a.18.18,0,0,1-.13-.16.15.15,0,0,1,.15-.15H553a.15.15,0,0,1,.16.15.17.17,0,0,1-.16.16h-.33V275a.15.15,0,0,1-.15.15.14.14,0,0,1-.15-.15Zm0,1.07a.15.15,0,0,1,.15-.16.16.16,0,0,1,.15.16v.61a.15.15,0,0,1-.15.14.14.14,0,0,1-.15-.14Zm0,1.21a.15.15,0,0,1,.15-.15.17.17,0,0,1,.15.15v.61a.15.15,0,0,1-.15.15.14.14,0,0,1-.15-.15Zm0,1.22a.15.15,0,0,1,.15-.15.17.17,0,0,1,.15.15v.62a.15.15,0,0,1-.15.15.14.14,0,0,1-.15-.15Zm0,1.23a.15.15,0,0,1,.15-.16.16.16,0,0,1,.15.16v.61a.16.16,0,0,1-.15.15.15.15,0,0,1-.15-.15Zm0,1.21a.15.15,0,0,1,.15-.14.16.16,0,0,1,.15.14v.61a.15.15,0,0,1-.15.15.14.14,0,0,1-.15-.15Zm0,1.22a.15.15,0,0,1,.15-.15.17.17,0,0,1,.15.15v.62a.15.15,0,0,1-.15.15.14.14,0,0,1-.15-.15Zm1.25-7.16a.16.16,0,0,1-.16-.16.14.14,0,0,1,.16-.15h.61a.15.15,0,0,1,.15.15.18.18,0,0,1-.15.16Zm1.22,0a.16.16,0,0,1-.15-.16.14.14,0,0,1,.15-.15h.61a.15.15,0,0,1,.15.15.18.18,0,0,1-.15.16Z" style="fill:#FFC727"></path><path d="M557,278.3a1.93,1.93,0,0,1,0-.42.12.12,0,0,1,.14-.13.13.13,0,0,1,.14.15c0,.13,0,.27,0,.4v.18a.13.13,0,0,1-.13.16h0a.15.15,0,0,1-.15-.15Zm.07.81a.17.17,0,0,1,.12-.17.17.17,0,0,1,.19.11,2.44,2.44,0,0,0,.15.59c0,.07,0,.14-.11.18h0a.17.17,0,0,1-.14-.1A5.61,5.61,0,0,1,557.08,279.11Zm.06-1.84a4.06,4.06,0,0,1,.19-.62c0-.08.13-.1.2-.08a.17.17,0,0,1,.09.2,4.5,4.5,0,0,0-.19.55.16.16,0,0,1-.15.12h0A.14.14,0,0,1,557.14,277.27Zm.37,3c0-.08,0-.18,0-.2a.14.14,0,0,1,.2.06,5.33,5.33,0,0,0,.31.51.15.15,0,0,1-.05.21l-.07,0a.16.16,0,0,1-.14-.07A2.28,2.28,0,0,1,557.51,280.3Zm.11-4.2c.11-.18.23-.35.35-.52a.15.15,0,0,1,.21,0,.14.14,0,0,1,0,.21q-.18.24-.33.48a.14.14,0,0,1-.13.07h-.07A.15.15,0,0,1,557.62,276.1Zm.59,5.21a.14.14,0,0,1,0-.21.17.17,0,0,1,.23,0,3.78,3.78,0,0,0,.43.38c.07.06.1.15,0,.21a.16.16,0,0,1-.13.06h-.09Zm.2-6.17a1.73,1.73,0,0,1,.5-.39.12.12,0,0,1,.19,0,.13.13,0,0,1,0,.19c-.15.12-.31.24-.46.38l-.11,0a.14.14,0,0,1-.1-.05C558.32,275.28,558.35,275.19,558.41,275.14Zm.83,6.94a.2.2,0,0,1-.09-.22.17.17,0,0,1,.23-.06,2.36,2.36,0,0,0,.52.21c.08,0,.11.13.1.2a.16.16,0,0,1-.15.1h0C559.61,282.24,559.42,282.16,559.24,282.08Zm.21-7.63a4.27,4.27,0,0,1,.6-.21.16.16,0,0,1,.19.12.15.15,0,0,1-.12.17,5.05,5.05,0,0,0-.55.18s0,0-.06,0a.13.13,0,0,1-.13-.09A.14.14,0,0,1,559.45,274.45Zm.85,7.84a.15.15,0,0,1,.16-.14,2.8,2.8,0,0,0,.51,0h.09a.15.15,0,0,1,.14.15.14.14,0,0,1-.14.15H561a2.24,2.24,0,0,1-.53,0C560.34,282.43,560.28,282.36,560.3,282.29Zm.67-7.86a1.37,1.37,0,0,0-.29,0,.17.17,0,0,1-.16-.15.17.17,0,0,1,.15-.17h.63a.16.16,0,0,1,0,.32h0A1.32,1.32,0,0,0,561,274.43Zm.66,7.7a5.6,5.6,0,0,0,.54-.17.16.16,0,0,1,.2.07c0,.11,0,.18-.07.21s-.42.13-.62.18h0a.14.14,0,0,1-.14-.12A.12.12,0,0,1,561.63,282.13Zm.22-7.6a.13.13,0,0,1-.12-.17c0-.07.12-.12.19-.11a3.31,3.31,0,0,1,.58.21.14.14,0,0,1,.08.19.15.15,0,0,1-.14.1s-.05,0-.06,0A4.15,4.15,0,0,0,561.85,274.53Zm.85,7.17a1.73,1.73,0,0,0,.47-.33.19.19,0,0,1,.22,0,.16.16,0,0,1,0,.21,3.58,3.58,0,0,1-.52.34l-.07,0a.15.15,0,0,1-.14-.07A.15.15,0,0,1,562.7,281.7Zm.2-6.68a.17.17,0,0,1,0-.22.17.17,0,0,1,.21,0,4.63,4.63,0,0,1,.48.4.13.13,0,0,1,0,.21.13.13,0,0,1-.12.05.11.11,0,0,1-.1,0C563.2,275.25,563.05,275.14,562.9,275Zm.7,6a4.32,4.32,0,0,0,.36-.46.14.14,0,0,1,.2,0,.14.14,0,0,1,0,.21,5.74,5.74,0,0,1-.36.5.25.25,0,0,1-.11.05.29.29,0,0,1-.11,0A.16.16,0,0,1,563.6,281Zm.14-5.17a.16.16,0,0,1,0-.21.14.14,0,0,1,.2,0,2.18,2.18,0,0,1,.36.52.16.16,0,0,1-.06.2l-.08,0a.17.17,0,0,1-.13-.08A3.74,3.74,0,0,0,563.74,275.8Zm.49,4.2a5.76,5.76,0,0,0,.21-.55.15.15,0,0,1,.19-.1c.07,0,.11.13.1.2a5.59,5.59,0,0,1-.22.57.18.18,0,0,1-.15.1h-.06A.17.17,0,0,1,564.23,280Zm.08-3.17c0-.11,0-.18.09-.21a.17.17,0,0,1,.22.08c.07.2.12.4.17.6a.17.17,0,0,1-.12.19h0a.17.17,0,0,1-.15-.13A3,3,0,0,0,564.31,276.83Zm.26,2.06c0-.19,0-.4,0-.59s0-.24,0-.35a.15.15,0,0,1,.13-.16.14.14,0,0,1,.16.13,1.63,1.63,0,0,1,0,.38,5.77,5.77,0,0,1,0,.62.14.14,0,0,1-.14.13h0A.15.15,0,0,1,564.57,278.89Z" style="fill:#FFC727"></path><path d="M566.49,274.46a.13.13,0,0,1,.08-.18.15.15,0,0,1,.2.07l.22.55a.14.14,0,0,1-.08.19h-.06a.15.15,0,0,1-.13-.08Zm.45,1.11a.18.18,0,0,1,.09-.21.15.15,0,0,1,.2.09l.22.54a.13.13,0,0,1-.08.2h-.06c-.06,0-.09,0-.13-.09Zm.46,1.08a.15.15,0,0,1,.1-.19.15.15,0,0,1,.19.07l.22.56a.13.13,0,0,1-.07.19h-.06a.14.14,0,0,1-.14-.08Zm.49,1.11a.14.14,0,0,1,.07-.2.15.15,0,0,1,.19.08l.22.54a.14.14,0,0,1-.07.2s0,0-.06,0a.13.13,0,0,1-.13-.09Zm.46,1.09a.12.12,0,0,1,.07-.18.14.14,0,0,1,.2.07l.23.55a.17.17,0,0,1-.09.2h-.06a.16.16,0,0,1-.13-.09Zm.45,1.1a.16.16,0,0,1,.07-.2.17.17,0,0,1,.2.09l.24.56c0,.07,0,.14-.09.18h-.06a.13.13,0,0,1-.13-.08Zm.46,1.09a.15.15,0,0,1,.09-.19.13.13,0,0,1,.18.08l.24.55a.16.16,0,0,1-.08.2h-.06a.16.16,0,0,1-.14-.09Zm.65,1.44a.13.13,0,0,1-.09-.11l-.1-.22c0-.07,0-.17.08-.19a.18.18,0,0,1,.16,0v0c0-.08.12-.1.19-.08a.16.16,0,0,1,.08.2l-.13.28a.21.21,0,0,1-.08.12h-.12Zm.28-1.07.24-.56a.15.15,0,0,1,.19-.07.15.15,0,0,1,.08.19l-.22.56a.22.22,0,0,1-.16.09l0,0A.15.15,0,0,1,570.19,281.41Zm.56-.9a.16.16,0,0,1-.1-.21l.24-.53a.14.14,0,1,1,.27.1l-.23.55a.16.16,0,0,1-.12.09Zm.36-1.29.24-.55a.14.14,0,0,1,.2-.07.13.13,0,0,1,.07.18l-.23.56a.18.18,0,0,1-.13.09l-.06,0A.16.16,0,0,1,571.11,279.22Zm.46-1.11.25-.55a.14.14,0,1,1,.26.12l-.23.55a.13.13,0,0,1-.13.09h-.05A.18.18,0,0,1,571.57,278.11Zm.86-1.25-.11.28a.16.16,0,0,1-.14.08h-.06a.16.16,0,0,1-.08-.2l.24-.55a.13.13,0,0,1,.17-.08.15.15,0,0,1,.14.08l.24.55a.17.17,0,0,1-.09.2h-.06a.13.13,0,0,1-.13-.08Zm.35.82a.14.14,0,0,1,.07-.19.14.14,0,0,1,.2.07l.24.55a.16.16,0,0,1-.1.2h-.05a.13.13,0,0,1-.13-.09Zm.46,1.1a.14.14,0,0,1,.08-.18.13.13,0,0,1,.19.07l.24.55a.15.15,0,0,1-.08.19l-.06,0a.27.27,0,0,1-.15-.09Zm.46,1.09a.15.15,0,0,1,.08-.19.14.14,0,0,1,.19.09l.24.53a.16.16,0,0,1-.09.21h0a.19.19,0,0,1-.15-.09Zm.47,1.1a.15.15,0,0,1,.07-.19.14.14,0,0,1,.19.07l.25.56a.17.17,0,0,1-.1.19s0,0,0,0a.19.19,0,0,1-.15-.09Zm.67,1.51a.13.13,0,0,1-.09-.11l-.12-.29a.16.16,0,0,1,.07-.2.16.16,0,0,1,.2.08v0a.2.2,0,0,1,.17,0,.14.14,0,0,1,.07.19l-.1.21a.17.17,0,0,1-.08.12Zm.25-1,.24-.55a.14.14,0,0,1,.19-.08.15.15,0,0,1,.08.19l-.23.56a.14.14,0,0,1-.13.09h-.06A.17.17,0,0,1,575.09,281.48Zm.55-.9c-.07,0-.12-.11-.09-.18l.25-.56a.15.15,0,0,1,.18-.09.14.14,0,0,1,.08.2l-.23.55a.12.12,0,0,1-.13.08Zm.38-1.29.24-.55a.12.12,0,0,1,.18-.07.13.13,0,0,1,.09.18l-.23.56a.19.19,0,0,1-.14.09h-.06A.16.16,0,0,1,576,279.29Zm.47-1.11.22-.54a.16.16,0,0,1,.2-.08.14.14,0,0,1,.07.2l-.22.55a.14.14,0,0,1-.13.09.08.08,0,0,1-.07,0A.14.14,0,0,1,576.49,278.18Zm.46-1.09.22-.56a.16.16,0,0,1,.2-.07.16.16,0,0,1,.09.19l-.24.56a.12.12,0,0,1-.13.08H577A.14.14,0,0,1,577,277.09Zm.54-.9a.14.14,0,0,1-.07-.2l.22-.54a.14.14,0,0,1,.19-.09.2.2,0,0,1,.1.21l-.25.53a.13.13,0,0,1-.13.09Zm.39-1.29.22-.55a.14.14,0,0,1,.19-.07.15.15,0,0,1,.1.18l-.24.56a.2.2,0,0,1-.14.08H578A.14.14,0,0,1,577.88,274.9Z" style="fill:#FFC727"></path><path d="M580.24,274.88V275a.14.14,0,0,1-.15.15.16.16,0,0,1-.15-.15v-.64a.14.14,0,0,1,.06-.11.15.15,0,0,1,.21,0l.35.49a.16.16,0,0,1,0,.22h-.1a.13.13,0,0,1-.12-.06Zm-.3.76a.15.15,0,0,1,.15-.15.14.14,0,0,1,.15.15v.6a.14.14,0,0,1-.15.14.16.16,0,0,1-.15-.14Zm0,1.19a.15.15,0,0,1,.15-.14.13.13,0,0,1,.15.14v.6a.15.15,0,0,1-.15.15.17.17,0,0,1-.15-.15Zm0,1.2a.15.15,0,0,1,.15-.15.14.14,0,0,1,.15.15v.59a.15.15,0,0,1-.15.15.17.17,0,0,1-.15-.15Zm0,1.19a.15.15,0,0,1,.15-.15.13.13,0,0,1,.15.15v.59a.14.14,0,0,1-.15.15.16.16,0,0,1-.15-.15Zm0,1.19a.16.16,0,0,1,.15-.16.14.14,0,0,1,.15.16v.6a.14.14,0,0,1-.15.14.16.16,0,0,1-.15-.14Zm0,1.19a.15.15,0,0,1,.15-.15.14.14,0,0,1,.15.15v.6a.15.15,0,0,1-.15.15.17.17,0,0,1-.15-.15Zm.73-6.14a.15.15,0,0,1,0-.21.17.17,0,0,1,.21,0l.35.48a.13.13,0,0,1,0,.2.12.12,0,0,1-.08,0,.14.14,0,0,1-.13-.06Zm.69,1a.16.16,0,0,1,0-.21.14.14,0,0,1,.21,0l.34.47c0,.09,0,.17,0,.21a.11.11,0,0,1-.1,0,.16.16,0,0,1-.12-.06Zm.7,1a.13.13,0,0,1,0-.2.12.12,0,0,1,.19,0l.37.48a.16.16,0,0,1,0,.2.08.08,0,0,1-.08,0,.18.18,0,0,1-.13-.06Zm.7,1a.14.14,0,0,1,0-.19.14.14,0,0,1,.21,0l.35.49a.14.14,0,0,1-.05.21s0,0-.08,0a.12.12,0,0,1-.12-.06Zm.7,1a.15.15,0,0,1,0-.21.14.14,0,0,1,.2.05l.34.47a.14.14,0,0,1,0,.21s-.06,0-.09,0a.14.14,0,0,1-.12-.06Zm.69,1c-.06-.06,0-.15,0-.21a.15.15,0,0,1,.21,0l.34.49a.15.15,0,0,1,0,.2.19.19,0,0,1-.08,0,.15.15,0,0,1-.11-.06Zm.7,1a.14.14,0,0,1,0-.21.15.15,0,0,1,.19,0l.35.48a.15.15,0,0,1,0,.21.16.16,0,0,1-.09,0,.17.17,0,0,1-.12-.06Zm.69,1a.15.15,0,0,1,0-.2s.08,0,.11,0v-.4a.15.15,0,0,1,.16-.15.14.14,0,0,1,.14.15v.6a.14.14,0,0,1,0,.1.18.18,0,0,1-.07.17h-.07a.13.13,0,0,1-.13-.06Zm.15-7.77a.15.15,0,0,1,.16-.15.14.14,0,0,1,.14.15V275a.15.15,0,0,1-.14.15.16.16,0,0,1-.16-.15Zm0,1.19a.15.15,0,0,1,.16-.15.14.14,0,0,1,.14.15v.6a.14.14,0,0,1-.14.14.16.16,0,0,1-.16-.14Zm0,1.19a.15.15,0,0,1,.16-.14.14.14,0,0,1,.14.14v.6a.15.15,0,0,1-.14.15.16.16,0,0,1-.16-.15Zm0,1.2a.15.15,0,0,1,.16-.15.14.14,0,0,1,.14.15v.59a.15.15,0,0,1-.14.15.16.16,0,0,1-.16-.15Zm0,1.19a.14.14,0,0,1,.16-.15.13.13,0,0,1,.14.15v.59a.15.15,0,0,1-.14.15.16.16,0,0,1-.16-.15Zm0,1.19a.15.15,0,0,1,.16-.16.14.14,0,0,1,.14.16v.6a.14.14,0,0,1-.14.14.16.16,0,0,1-.16-.14Z" style="fill:#FFC727"></path><rect x="413.93" y="266.02" width="85.47" height="74.12" style="fill:#37474f"></rect><polygon points="470.15 340.14 499.39 310.9 499.39 340.14 470.15 340.14" style="fill:#455a64"></polygon><polygon points="454.01 266.02 413.93 306.1 413.93 293.63 441.54 266.02 454.01 266.02" style="fill:#455a64"></polygon><polygon points="449.45 340.14 499.39 290.2 499.39 292.76 452.01 340.14 449.45 340.14" style="fill:#455a64"></polygon><rect x="413.93" y="266.02" width="85.47" height="4.47" style="fill:#263238"></rect><rect x="413.93" y="295.38" width="85.47" height="3.55" style="fill:#FFC727"></rect><rect x="232.13" y="266.02" width="85.47" height="74.12" style="fill:#37474f"></rect><polygon points="317.6 266.02 317.6 285.96 263.42 340.14 232.13 340.14 232.13 332.34 298.45 266.02 317.6 266.02" style="fill:#455a64"></polygon><polygon points="252.53 266.02 232.13 286.42 232.13 283.85 249.96 266.02 252.53 266.02" style="fill:#455a64"></polygon><rect x="232.13" y="266.02" width="85.47" height="4.47" style="fill:#263238"></rect><rect x="232.13" y="295.38" width="85.47" height="3.55" style="fill:#FFC727"></rect><rect x="140.25" y="266.02" width="85.47" height="74.12" style="fill:#37474f"></rect><polygon points="154.59 266.02 140.25 280.36 140.25 266.02 154.59 266.02" style="fill:#455a64"></polygon><polygon points="203.27 266.02 140.25 329.04 140.25 316.58 190.8 266.02 203.27 266.02" style="fill:#455a64"></polygon><polygon points="175.83 340.14 225.72 290.26 225.72 292.83 178.41 340.14 175.83 340.14" style="fill:#455a64"></polygon><rect x="140.25" y="266.02" width="85.47" height="4.47" style="fill:#263238"></rect><rect x="140.25" y="295.38" width="85.47" height="3.55" style="fill:#FFC727"></rect><rect x="48.36" y="266.02" width="85.47" height="74.12" style="fill:#37474f"></rect><polygon points="133.83 266.02 133.83 286.78 80.47 340.14 48.37 340.14 48.37 333.16 115.51 266.02 133.83 266.02" style="fill:#455a64"></polygon><polygon points="116.69 340.14 133.83 323 133.83 335.47 129.15 340.14 116.69 340.14" style="fill:#455a64"></polygon><polygon points="105.61 266.02 48.37 323.26 48.37 320.7 103.05 266.02 105.61 266.02" style="fill:#455a64"></polygon><rect x="48.36" y="266.02" width="85.47" height="4.47" style="fill:#263238"></rect><rect x="48.36" y="295.38" width="85.47" height="3.55" style="fill:#FFC727"></rect><rect x="33.68" y="382.25" width="12.3" height="22.96" style="fill:#dbdbdb"></rect><rect x="697.2" y="391.3" width="12.3" height="22.96" style="fill:#dbdbdb"></rect><g style="opacity:0.1"><path d="M135.67,406.51l-84.49-7.9V365.17h84.49ZM53.56,396.44l79.74,7.47V367.55H53.56Z"></path><polygon points="59.09 370.66 59.09 393.47 56.71 393.25 56.71 370.66 59.09 370.66"></polygon><polygon points="63.82 370.66 63.82 393.92 61.45 393.69 61.45 370.66 63.82 370.66"></polygon><polygon points="68.56 370.66 68.56 394.36 66.18 394.13 66.18 370.66 68.56 370.66"></polygon><polygon points="73.3 370.66 73.3 394.8 70.92 394.58 70.92 370.66 73.3 370.66"></polygon><polygon points="78.03 370.66 78.03 395.25 75.66 395.02 75.66 370.66 78.03 370.66"></polygon><polygon points="82.77 370.66 82.77 395.69 80.39 395.46 80.39 370.66 82.77 370.66"></polygon><polygon points="87.51 370.66 87.51 396.13 85.13 395.91 85.13 370.66 87.51 370.66"></polygon><polygon points="92.24 370.66 92.24 396.58 89.87 396.35 89.87 370.66 92.24 370.66"></polygon><polygon points="96.98 370.66 96.98 397.02 94.61 396.79 94.61 370.66 96.98 370.66"></polygon><polygon points="101.72 370.66 101.72 397.46 99.34 397.24 99.34 370.66 101.72 370.66"></polygon><polygon points="106.45 370.66 106.45 397.91 104.08 397.68 104.08 370.66 106.45 370.66"></polygon><polygon points="111.19 370.66 111.19 398.35 108.81 398.12 108.81 370.66 111.19 370.66"></polygon><polygon points="115.93 370.66 115.93 398.79 113.55 398.57 113.55 370.66 115.93 370.66"></polygon><polygon points="120.66 370.66 120.66 399.24 118.29 399.01 118.29 370.66 120.66 370.66"></polygon><polygon points="125.4 370.66 125.4 399.68 123.03 399.45 123.03 370.66 125.4 370.66"></polygon><polygon points="130.15 370.66 130.15 400.12 127.77 399.9 127.77 370.66 130.15 370.66"></polygon></g><path d="M704.27,273.32h2.32a5.73,5.73,0,0,1,5.73,5.73v15.83a5.73,5.73,0,0,1-5.73,5.73h-2.32a0,0,0,0,1,0,0V273.32A0,0,0,0,1,704.27,273.32Z" style="fill:#FFC727"></path><path d="M712.32,281.44H713a3.37,3.37,0,0,1,3.37,3.37v4.32a3.37,3.37,0,0,1-3.37,3.37h-.63a0,0,0,0,1,0,0V281.44A0,0,0,0,1,712.32,281.44Z" style="fill:#263238"></path><polygon points="715.51 286.22 713.13 286.22 713.13 268.68 690.79 246.34 692.47 244.66 715.51 267.7 715.51 286.22" style="fill:#263238"></polygon><rect x="701.7" y="252.99" width="2.37" height="25.2" transform="translate(166.46 791.74) rotate(-65.15)" style="fill:#263238"></rect><rect x="332.4" y="274.11" width="26.25" height="104.02" style="fill:#37474f"></rect><rect x="332.4" y="274.11" width="26.25" height="4.47" style="fill:#263238"></rect><polygon points="332.4 375.15 358.65 348.9 358.65 361.37 341.89 378.13 332.4 378.13 332.4 375.15" style="fill:#455a64"></polygon><polygon points="332.4 334.79 358.65 308.54 358.65 311.12 332.4 337.37 332.4 334.79" style="fill:#455a64"></polygon><rect x="373.26" y="274.11" width="26.25" height="104.02" style="fill:#37474f"></rect><polygon points="373.27 334.29 399.52 308.04 399.52 320.51 373.27 346.76 373.27 334.29" style="fill:#455a64"></polygon><polygon points="395.66 274.11 373.27 296.5 373.27 293.93 393.08 274.11 395.66 274.11" style="fill:#455a64"></polygon><rect x="373.27" y="274.11" width="26.25" height="4.47" style="fill:#263238"></rect><polygon points="224.33 340.14 225.72 338.75 225.72 340.14 224.33 340.14" style="fill:#455a64"></polygon><polygon points="706.2 340.14 691.45 340.14 691.45 266.01 701.61 266.01 706.2 340.14" style="fill:#37474f"></polygon><polygon points="705.8 333.86 699.52 340.14 691.45 340.14 691.45 309.12 703.54 297.04 705.8 333.86" style="fill:#455a64"></polygon><polygon points="702.05 273.12 691.45 283.71 691.45 281.13 701.9 270.68 702.05 273.12" style="fill:#455a64"></polygon><rect x="704.27" y="371.37" width="5.24" height="16.96" style="fill:#FFC727"></rect><rect x="704.27" y="371.37" width="5.24" height="16.96" style="fill:#fff;opacity:0.5"></rect><rect x="36.41" y="370.66" width="3.66" height="9.72" style="fill:#FFC727"></rect><rect x="36.41" y="370.66" width="3.66" height="9.72" style="fill:#fff;opacity:0.5"></rect><rect x="36.41" y="357.82" width="3.66" height="9.72" style="fill:#FFC727"></rect><rect x="36.41" y="357.82" width="3.66" height="9.72" style="fill:#fff;opacity:0.5"></rect></g></svg>
